<?xml version="1.0" standalone="no"?>
<svg width="567.429" height="405.449" viewBox="0 0 567.429 405.449" xmlns="http://www.w3.org/2000/svg" shape-rendering="crispEdges">
<title>
output/result.svg
</title>
<desc>
Creator: ROOT Version 6.22/06
CreationDate: Thu Jul  1 15:30:08 2021</desc>
<defs>
</defs>
<rect x="0.5" y="0" width="566.929" height="404.949" fill="white"/>
<rect x="113.886" y="16.198" width="425.197" height="307.762" fill="white"/>
<rect x="113.886" y="16.198" width="425.197" height="307.762" fill="none" stroke="black"/>
<rect x="113.886" y="16.198" width="425.197" height="307.762" fill="white"/>
<rect x="113.886" y="16.198" width="425.197" height="307.762" fill="none" stroke="black"/>
<path d="M113.886,323.96h 425.197" fill="none" stroke="black"/>
<path d="M133.213,16.198v 307.762" fill="none" stroke="black" stroke-dasharray=" 1, 2"/>
<path d="M210.599,16.198v 307.762" fill="none" stroke="black" stroke-dasharray=" 1, 2"/>
<path d="M287.985,16.198v 307.762" fill="none" stroke="black" stroke-dasharray=" 1, 2"/>
<path d="M365.371,16.198v 307.762" fill="none" stroke="black" stroke-dasharray=" 1, 2"/>
<path d="M442.757,16.198v 307.762" fill="none" stroke="black" stroke-dasharray=" 1, 2"/>
<path d="M520.142,16.198v 307.762" fill="none" stroke="black" stroke-dasharray=" 1, 2"/>
<path d="M133.213,16.198v 307.762" fill="none" stroke="black" stroke-dasharray=" 1, 2"/>
<path d="M520.142,16.198v 307.762" fill="none" stroke="black" stroke-dasharray=" 1, 2"/>
<path d="M113.886,323.96v -307.762" fill="none" stroke="black"/>
<path d="M539.083,323.96h -425.197" fill="none" stroke="black" stroke-dasharray=" 1, 2"/>
<path d="M539.083,262.407h -425.197" fill="none" stroke="black" stroke-dasharray=" 1, 2"/>
<path d="M539.083,200.855h -425.197" fill="none" stroke="black" stroke-dasharray=" 1, 2"/>
<path d="M539.083,139.303h -425.197" fill="none" stroke="black" stroke-dasharray=" 1, 2"/>
<path d="M539.083,77.7503h -425.197" fill="none" stroke="black" stroke-dasharray=" 1, 2"/>
<path d="M539.083,16.198h -425.197" fill="none" stroke="black" stroke-dasharray=" 1, 2"/>
<path d="M539.083,16.198h -425.197" fill="none" stroke="black" stroke-dasharray=" 1, 2"/>
<path d="M113.886,323.96h 425.197" fill="none" stroke="black"/>
<path d="M133.213,317.885v 6.07424" fill="none" stroke="black"/>
<path d="M152.559,320.922v 3.03712" fill="none" stroke="black"/>
<path d="M171.906,320.922v 3.03712" fill="none" stroke="black"/>
<path d="M191.252,320.922v 3.03712" fill="none" stroke="black"/>
<path d="M210.599,317.885v 6.07424" fill="none" stroke="black"/>
<path d="M229.945,320.922v 3.03712" fill="none" stroke="black"/>
<path d="M249.292,320.922v 3.03712" fill="none" stroke="black"/>
<path d="M268.638,320.922v 3.03712" fill="none" stroke="black"/>
<path d="M287.985,317.885v 6.07424" fill="none" stroke="black"/>
<path d="M307.331,320.922v 3.03712" fill="none" stroke="black"/>
<path d="M326.678,320.922v 3.03712" fill="none" stroke="black"/>
<path d="M346.024,320.922v 3.03712" fill="none" stroke="black"/>
<path d="M365.371,317.885v 6.07424" fill="none" stroke="black"/>
<path d="M384.717,320.922v 3.03712" fill="none" stroke="black"/>
<path d="M404.064,320.922v 3.03712" fill="none" stroke="black"/>
<path d="M423.41,320.922v 3.03712" fill="none" stroke="black"/>
<path d="M442.757,317.885v 6.07424" fill="none" stroke="black"/>
<path d="M462.103,320.922v 3.03712" fill="none" stroke="black"/>
<path d="M481.45,320.922v 3.03712" fill="none" stroke="black"/>
<path d="M500.796,320.922v 3.03712" fill="none" stroke="black"/>
<path d="M520.142,317.885v 6.07424" fill="none" stroke="black"/>
<path d="M133.213,317.885v 6.07424" fill="none" stroke="black"/>
<path d="M520.142,317.885v 6.07424" fill="none" stroke="black"/>
<text xml:space="preserve" x="121.985" y="354.736" fill="black" font-size="33.9362" font-family="Helvetica">0</text>
<text xml:space="preserve" x="180.298" y="354.736" fill="black" font-size="33.9362" font-family="Helvetica">200</text>
<text xml:space="preserve" x="258.048" y="354.736" fill="black" font-size="33.9362" font-family="Helvetica">400</text>
<text xml:space="preserve" x="335.798" y="354.736" fill="black" font-size="33.9362" font-family="Helvetica">600</text>
<text xml:space="preserve" x="413.548" y="354.736" fill="black" font-size="33.9362" font-family="Helvetica">800</text>
<text xml:space="preserve" x="481.58" y="354.736" fill="black" font-size="33.9362" font-family="Helvetica">1000</text>
<text xml:space="preserve" x="416.788" y="391.991" fill="black" font-size="33.9362" font-family="Helvetica">Time [h]</text>
<path d="M113.886,323.96v -307.762" fill="none" stroke="black"/>
<path d="M122.503,323.96h -8.61732" fill="none" stroke="black"/>
<path d="M122.503,262.407h -8.61732" fill="none" stroke="black"/>
<path d="M122.503,200.855h -8.61732" fill="none" stroke="black"/>
<path d="M122.503,139.303h -8.61732" fill="none" stroke="black"/>
<path d="M122.503,77.7503h -8.61732" fill="none" stroke="black"/>
<path d="M122.503,16.198h -8.61732" fill="none" stroke="black"/>
<path d="M122.503,16.198h -8.61732" fill="none" stroke="black"/>
<text xml:space="preserve" x="92.8285" y="336.918" fill="black" font-size="33.9362" font-family="Helvetica">0</text>
<text xml:space="preserve" x="63.6721" y="275.366" fill="black" font-size="33.9362" font-family="Helvetica">0.2</text>
<text xml:space="preserve" x="63.6721" y="213.813" fill="black" font-size="33.9362" font-family="Helvetica">0.4</text>
<text xml:space="preserve" x="63.6721" y="152.261" fill="black" font-size="33.9362" font-family="Helvetica">0.6</text>
<text xml:space="preserve" x="63.6721" y="90.7087" fill="black" font-size="33.9362" font-family="Helvetica">0.8</text>
<text xml:space="preserve" x="97.6879" y="29.1564" fill="black" font-size="33.9362" font-family="Helvetica">1</text>
<g transform="rotate(-90,40.9949,307.762)">
<text xml:space="preserve" x="40.9949" y="307.762" fill="black" font-size="33.9362" font-family="Helvetica">Population Fraction</text>
</g>
<path d="M133.213,17.7291l 0.38693, 0.105569l 0.38693, 0.112239l 0.38693, 0.119325l 0.38693, 0.126852l 0.38693, 0.134846l 0.38693, 0.143336l 0.38693, 0.152352l 0.38693, 0.161924l 0.38693, 0.172086l 0.38693, 0.182873l 0.38693, 0.194321l 0.38693,
 0.206468l 0.38693, 0.219356l 0.38693, 0.233027l 0.38693, 0.247526l 0.38693, 0.262899l 0.38693, 0.279197l 0.38693, 0.29647l 0.38693, 0.314773l 0.38693, 0.334161l 0.38693, 0.354694l 0.38693, 0.376432l 0.38693, 0.39944l 0.38693, 0.423783l 0.38693,
 0.44953l 0.38693, 0.47675l 0.38693, 0.505518l 0.38693, 0.535909l 0.38693, 0.567998l 0.38693, 0.601866l 0.38693, 0.637592l 0.38693, 0.675258l 0.38693, 0.714947l 0.38693, 0.756742l 0.38693, 0.800726l 0.38693, 0.846982l 0.38693, 0.895593l 0.38693,
 0.946637l 0.38693, 1.0002l 0.38693, 1.05634l 0.38693, 1.11514l 0.38693, 1.17667l 0.38693, 1.24098l 0.38693, 1.30813l 0.38693, 1.37815l 0.38693, 1.45108l 0.38693, 1.52695l 0.38693, 1.60576l 0.38693, 1.6875l 0.38693, 1.77216l 0.38693, 1.85968l
 0.38693, 1.95001l 0.38693, 2.04306l 0.38693, 2.13873l 0.38693, 2.23688l 0.38693, 2.33735l 0.38693, 2.43996l 0.38693, 2.54448l 0.38693, 2.65067l 0.38693, 2.75825l 0.38693, 2.8669l 0.38693, 2.97628l 0.38693, 3.08601l 0.38693, 3.19569l 0.38693,
 3.30488l 0.38693, 3.41312l 0.38693, 3.51992l 0.38693, 3.62478l 0.38693, 3.72717l 0.38693, 3.82655l 0.38693, 3.92238l 0.38693, 4.01411l 0.38693, 4.10119l 0.38693, 4.1831l 0.38693, 4.25931l 0.38693, 4.32934l 0.38693, 4.39271l 0.38693, 4.44901l
 0.38693, 4.49784l 0.38693, 4.53888l 0.38693, 4.57182l 0.38693, 4.59646l 0.38693, 4.61262l 0.38693, 4.62021l 0.38693, 4.61917l 0.38693, 4.60956l 0.38693, 4.59145l 0.38693, 4.565l 0.38693, 4.53043l 0.38693, 4.48802l 0.38693, 4.43808l 0.38693, 4.381l
 0.38693, 4.3172l 0.38693, 4.24711l 0.38693, 4.17122l 0.38693, 4.09005l 0.38693, 4.0041l 0.38693, 3.91391l 0.38693, 3.82001l 0.38693, 3.72293l 0.38693, 3.62321l 0.38693, 3.52134l 0.38693, 3.41784l 0.38693, 3.31316l 0.38693, 3.20777l 0.38693, 3.1021l
 0.38693, 2.99653l 0.38693, 2.89145l 0.38693, 2.78718l 0.38693, 2.68404l 0.38693, 2.5823l 0.38693, 2.48222l 0.38693, 2.38401l 0.38693, 2.28785l 0.38693, 2.19392l 0.38693, 2.10235l 0.38693, 2.01325l 0.38693, 1.92671l 0.38693, 1.8428l 0.38693, 1.76156l
 0.38693, 1.68303l 0.38693, 1.60723l 0.38693, 1.53415l 0.38693, 1.46378l 0.38693, 1.3961l 0.38693, 1.33107l 0.38693, 1.26866l 0.38693, 1.2088l 0.38693, 1.15146l 0.38693, 1.09656l 0.38693, 1.04405l 0.38693, 0.993849l 0.38693, 0.945891l 0.38693,
 0.900103l 0.38693, 0.856411l 0.38693, 0.814741l 0.38693, 0.775018l 0.38693, 0.737168l 0.38693, 0.701117l 0.38693, 0.666791l 0.38693, 0.634121l 0.38693, 0.603035l 0.38693, 0.573464l 0.38693, 0.545342l 0.38693, 0.518605l 0.38693, 0.493188l 0.38693,
 0.469032l 0.38693, 0.446077l 0.38693, 0.424267l 0.38693, 0.403547l 0.38693, 0.383864l 0.38693, 0.365169l 0.38693, 0.347413l 0.38693, 0.33055l 0.38693, 0.314535l 0.38693, 0.299327l 0.38693, 0.284885l 0.38693, 0.27117l 0.38693, 0.258146l 0.38693,
 0.245777l 0.38693, 0.234031l 0.38693, 0.222876l 0.38693, 0.212281l 0.38693, 0.202217l 0.38693, 0.192659l 0.38693, 0.183578l 0.38693, 0.174952l 0.38693, 0.166757l 0.38693, 0.158969l 0.38693, 0.151569l 0.38693, 0.144537l 0.38693, 0.137853l 0.38693,
 0.131499l 0.38693, 0.125459l 0.38693, 0.119716l 0.38693, 0.114255l 0.38693, 0.109062l 0.38693, 0.104122l 0.38693, 0.0994235l 0.38693, 0.0949531l 0.38693, 0.0906994l 0.38693, 0.0866514l 0.38693, 0.0827985l 0.38693, 0.0791308l 0.38693, 0.0756389l
 0.38693, 0.0723138l 0.38693, 0.0691472l 0.38693, 0.0661309l 0.38693, 0.0632575l 0.38693, 0.0605197l 0.38693, 0.0579107l 0.38693, 0.0554241l 0.38693, 0.0530537l 0.38693, 0.0507938l 0.38693, 0.0486388l 0.38693, 0.0465835l 0.38693, 0.0446231l 0.38693,
 0.0427528l 0.38693, 0.0409681l 0.38693, 0.039265l 0.38693, 0.0376393l 0.38693, 0.0360874l 0.38693, 0.0346055l 0.38693, 0.0331904l 0.38693, 0.0318388l 0.38693, 0.0305476l 0.38693, 0.0293139l 0.38693, 0.0281349l 0.38693, 0.0270081l 0.38693, 0.025931l
 0.38693, 0.0249011l 0.38693, 0.0239163l 0.38693, 0.0229744l 0.38693, 0.0220734l 0.38693, 0.0212114l 0.38693, 0.0203865l 0.38693, 0.0195971l 0.38693, 0.0188415l 0.38693, 0.018118l 0.38693, 0.0174253l 0.38693, 0.0167619l 0.38693, 0.0161265l 0.38693,
 0.0155177l 0.38693, 0.0149344l 0.38693, 0.0143754l 0.38693, 0.0138397l 0.38693, 0.0133261l 0.38693, 0.0128336l 0.38693, 0.0123614l 0.38693, 0.0119085l 0.38693, 0.011474l 0.38693, 0.0110572l 0.38693, 0.0106573l 0.38693, 0.0102734l 0.38693,
 0.00990497l 0.38693, 0.00955125l 0.38693, 0.00921162l 0.38693, 0.00888547l 0.38693, 0.00857221l 0.38693, 0.00827128l 0.38693, 0.00798216l 0.38693, 0.00770433l 0.38693, 0.00743732l 0.38693, 0.00718067l 0.38693, 0.00693393l 0.38693, 0.00669668l
 0.38693, 0.00646853l 0.38693, 0.00624909l 0.38693, 0.006038l 0.38693, 0.00583492l 0.38693, 0.00563949l 0.38693, 0.00545142l 0.38693, 0.0052704l 0.38693, 0.00509613l 0.38693, 0.00492835l 0.38693, 0.00476677l 0.38693, 0.00461116l 0.38693, 0.00446127l
 0.38693, 0.00431687l 0.38693, 0.00417774l 0.38693, 0.00404367l 0.38693, 0.00391444l 0.38693, 0.00378988l 0.38693, 0.0036698l 0.38693, 0.00355401l 0.38693, 0.00344235l 0.38693, 0.00333466l 0.38693, 0.00323078l 0.38693, 0.00313056l 0.38693,
 0.00303386l 0.38693, 0.00294054l 0.38693, 0.00285048l 0.38693, 0.00276354l 0.38693, 0.00267961l 0.38693, 0.00259858l 0.38693, 0.00252032l 0.38693, 0.00244474l 0.38693, 0.00237174l 0.38693, 0.00230121l 0.38693, 0.00223307l 0.38693, 0.00216723l
 0.38693, 0.0021036l 0.38693, 0.00204209l 0.38693, 0.00198263l 0.38693, 0.00192515l 0.38693, 0.00186956l 0.38693, 0.00181581l 0.38693, 0.00176382l 0.38693, 0.00171353l 0.38693, 0.00166488l 0.38693, 0.0016178l 0.38693, 0.00157225l 0.38693, 0.00152817l
 0.38693, 0.0014855l 0.38693, 0.00144419l 0.38693, 0.0014042l 0.38693, 0.00136548l 0.38693, 0.00132798l 0.38693, 0.00129166l 0.38693, 0.00125649l 0.38693, 0.00122241l 0.38693, 0.00118939l 0.38693, 0.0011574l 0.38693, 0.0011264l 0.38693, 0.00109635l
 0.38693, 0.00106723l 0.38693, 0.00103899l 0.38693, 0.00101162l 0.38693, 0.000985075l 0.38693, 0.000959334l 0.38693, 0.000934369l 0.38693, 0.000910153l 0.38693, 0.000886661l 0.38693, 0.00086387l 0.38693, 0.000841755l 0.38693, 0.000820294l 0.38693,
 0.000799466l 0.38693, 0.000779249l 0.38693, 0.000759624l 0.38693, 0.000740571l 0.38693, 0.000722072l 0.38693, 0.000704108l 0.38693, 0.000686662l 0.38693, 0.000669717l 0.38693, 0.000653257l 0.38693, 0.000637267l 0.38693, 0.000621732l 0.38693,
 0.000606636l 0.38693, 0.0310873h 259.243" fill="none" stroke="#0000ff" stroke-width="2" stroke-dasharray=" 3, 3"/>
<path d="M133.213,322.428l 0.38693, -0.0973404l 0.38693, -0.103488l 0.38693, -0.110017l 0.38693, -0.116953l 0.38693, -0.124319l 0.38693, -0.132142l 0.38693, -0.140447l 0.38693, -0.149265l 0.38693, -0.158626l 0.38693, -0.16856l 0.38693, -0.179102l
 0.38693, -0.190288l 0.38693, -0.202154l 0.38693, -0.214739l 0.38693, -0.228085l 0.38693, -0.242233l 0.38693, -0.25723l 0.38693, -0.273122l 0.38693, -0.289959l 0.38693, -0.30779l 0.38693, -0.326671l 0.38693, -0.346656l 0.38693, -0.367803l 0.38693,
 -0.390172l 0.38693, -0.413824l 0.38693, -0.438825l 0.38693, -0.465238l 0.38693, -0.493133l 0.38693, -0.522577l 0.38693, -0.553642l 0.38693, -0.586399l 0.38693, -0.620921l 0.38693, -0.657281l 0.38693, -0.695552l 0.38693, -0.735808l 0.38693,
 -0.778122l 0.38693, -0.822563l 0.38693, -0.869202l 0.38693, -0.918105l 0.38693, -0.969334l 0.38693, -1.02295l 0.38693, -1.079l 0.38693, -1.13754l 0.38693, -1.1986l 0.38693, -1.26221l 0.38693, -1.3284l 0.38693, -1.39717l 0.38693, -1.46851l 0.38693,
 -1.54241l 0.38693, -1.61883l 0.38693, -1.69772l 0.38693, -1.77899l 0.38693, -1.86256l 0.38693, -1.9483l 0.38693, -2.03607l 0.38693, -2.1257l 0.38693, -2.217l 0.38693, -2.30973l 0.38693, -2.40364l 0.38693, -2.49845l 0.38693, -2.59383l 0.38693,
 -2.68945l 0.38693, -2.78492l 0.38693, -2.87984l 0.38693, -2.97378l 0.38693, -3.06629l 0.38693, -3.15688l 0.38693, -3.24506l 0.38693, -3.33032l 0.38693, -3.41213l 0.38693, -3.48998l 0.38693, -3.56333l 0.38693, -3.63167l 0.38693, -3.69449l 0.38693,
 -3.75131l 0.38693, -3.80166l 0.38693, -3.84511l 0.38693, -3.88127l 0.38693, -3.90981l 0.38693, -3.93041l 0.38693, -3.94285l 0.38693, -3.94693l 0.38693, -3.94253l 0.38693, -3.92961l 0.38693, -3.90815l 0.38693, -3.87825l 0.38693, -3.84003l 0.38693,
 -3.79369l 0.38693, -3.7395l 0.38693, -3.67776l 0.38693, -3.60884l 0.38693, -3.53315l 0.38693, -3.45115l 0.38693, -3.36331l 0.38693, -3.27014l 0.38693, -3.17218l 0.38693, -3.06997l 0.38693, -2.96406l 0.38693, -2.855l 0.38693, -2.74334l 0.38693,
 -2.62961l 0.38693, -2.51435l 0.38693, -2.39805l 0.38693, -2.28118l 0.38693, -2.16421l 0.38693, -2.04757l 0.38693, -1.93163l 0.38693, -1.81678l 0.38693, -1.70335l 0.38693, -1.59162l 0.38693, -1.48188l 0.38693, -1.37436l 0.38693, -1.26926l 0.38693,
 -1.16676l 0.38693, -1.06702l 0.38693, -0.970139l 0.38693, -0.876229l 0.38693, -0.785361l 0.38693, -0.697587l 0.38693, -0.612938l 0.38693, -0.531431l 0.38693, -0.453063l 0.38693, -0.377819l 0.38693, -0.30567l 0.38693, -0.236578l 0.38693, -0.170492l
 0.38693, -0.107355l 0.38693, -0.0471033l 0.38693, 0.0103347l 0.38693, 0.0650338l 0.38693, 0.117073l 0.38693, 0.166534l 0.38693, 0.213501l 0.38693, 0.25806l 0.38693, 0.300296l 0.38693, 0.340297l 0.38693, 0.378147l 0.38693, 0.413933l 0.38693,
 0.447739l 0.38693, 0.479647l 0.38693, 0.50974l 0.38693, 0.538096l 0.38693, 0.564793l 0.38693, 0.589905l 0.38693, 0.613508l 0.38693, 0.635669l 0.38693, 0.656459l 0.38693, 0.675943l 0.38693, 0.694183l 0.38693, 0.711242l 0.38693, 0.727176l 0.38693,
 0.742044l 0.38693, 0.755897l 0.38693, 0.768788l 0.38693, 0.780766l 0.38693, 0.791877l 0.38693, 0.802167l 0.38693, 0.811677l 0.38693, 0.820449l 0.38693, 0.828522l 0.38693, 0.835932l 0.38693, 0.842714l 0.38693, 0.848902l 0.38693, 0.854528l 0.38693,
 0.859621l 0.38693, 0.86421l 0.38693, 0.868323l 0.38693, 0.871985l 0.38693, 0.875221l 0.38693, 0.878053l 0.38693, 0.880504l 0.38693, 0.882595l 0.38693, 0.884346l 0.38693, 0.885775l 0.38693, 0.8869l 0.38693, 0.887738l 0.38693, 0.888304l 0.38693,
 0.888615l 0.38693, 0.888684l 0.38693, 0.888524l 0.38693, 0.88815l 0.38693, 0.887572l 0.38693, 0.886802l 0.38693, 0.885852l 0.38693, 0.884732l 0.38693, 0.883451l 0.38693, 0.882018l 0.38693, 0.880443l 0.38693, 0.878734l 0.38693, 0.876898l 0.38693,
 0.874944l 0.38693, 0.872877l 0.38693, 0.870705l 0.38693, 0.868435l 0.38693, 0.866071l 0.38693, 0.863621l 0.38693, 0.861088l 0.38693, 0.858479l 0.38693, 0.855798l 0.38693, 0.85305l 0.38693, 0.850238l 0.38693, 0.847368l 0.38693, 0.844443l 0.38693,
 0.841466l 0.38693, 0.838441l 0.38693, 0.835372l 0.38693, 0.832262l 0.38693, 0.829113l 0.38693, 0.825928l 0.38693, 0.822711l 0.38693, 0.819463l 0.38693, 0.816186l 0.38693, 0.812885l 0.38693, 0.809559l 0.38693, 0.806212l 0.38693, 0.802845l 0.38693,
 0.799461l 0.38693, 0.79606l 0.38693, 0.792645l 0.38693, 0.789217l 0.38693, 0.785777l 0.38693, 0.782328l 0.38693, 0.77887l 0.38693, 0.775404l 0.38693, 0.771932l 0.38693, 0.768455l 0.38693, 0.764974l 0.38693, 0.76149l 0.38693, 0.758004l 0.38693,
 0.754517l 0.38693, 0.75103l 0.38693, 0.747543l 0.38693, 0.744057l 0.38693, 0.740573l 0.38693, 0.737093l 0.38693, 0.733615l 0.38693, 0.730142l 0.38693, 0.726673l 0.38693, 0.723209l 0.38693, 0.719751l 0.38693, 0.716299l 0.38693, 0.712854l 0.38693,
 0.709416l 0.38693, 0.705986l 0.38693, 0.702563l 0.38693, 0.699149l 0.38693, 0.695743l 0.38693, 0.692347l 0.38693, 0.68896l 0.38693, 0.685582l 0.38693, 0.682214l 0.38693, 0.678857l 0.38693, 0.67551l 0.38693, 0.672173l 0.38693, 0.668848l 0.38693,
 0.665533l 0.38693, 0.66223l 0.38693, 0.658938l 0.38693, 0.655658l 0.38693, 0.65239l 0.38693, 0.649134l 0.38693, 0.645889l 0.38693, 0.642657l 0.38693, 0.639437l 0.38693, 0.63623l 0.38693, 0.633035l 0.38693, 0.629853l 0.38693, 0.626684l 0.38693,
 0.623527l 0.38693, 0.620384l 0.38693, 0.617253l 0.38693, 0.614135l 0.38693, 0.61103l 0.38693, 0.607939l 0.38693, 0.604861l 0.38693, 0.601796l 0.38693, 0.598744l 0.38693, 0.595705l 0.38693, 0.59268l 0.38693, 0.589668l 0.38693, 0.58667l 0.38693,
 0.583685l 0.38693, 0.580713l 0.38693, 0.577754l 0.38693, 0.574809l 0.38693, 0.571878l 0.38693, 0.56896l 0.38693, 0.566055l 0.38693, 0.563164l 0.38693, 0.560286l 0.38693, 0.557421l 0.38693, 0.55457l 0.38693, 0.551732l 0.38693, 0.548908l 0.38693,
 0.546097l 0.38693, 0.543299l 0.38693, 0.540514l 0.38693, 0.537743l 0.38693, 0.534985l 0.38693, 0.53224l 0.38693, 0.529508l 0.38693, 0.526789l 0.38693, 0.524084l 0.38693, 0.521391l 0.38693, 0.518712l 0.38693, 0.516046l 0.38693, 0.513392l 0.38693,
 0.510752l 0.38693, 0.508124l 0.38693, 0.505509l 0.38693, 0.502907l 0.38693, 0.500318l 0.38693, 0.497742l 0.38693, 0.495178l 0.38693, 0.492627l 0.38693, 0.490088l 0.38693, 0.487562l 0.38693, 0.485049l 0.38693, 0.482548l 0.38693, 0.480059l 0.38693,
 0.477583l 0.38693, 0.475119l 0.38693, 0.472668l 0.38693, 0.470229l 0.38693, 0.467801l 0.38693, 0.465387l 0.38693, 0.462984l 0.38693, 0.460593l 0.38693, 0.458214l 0.38693, 0.455847l 0.38693, 0.453492l 0.38693, 0.451149l 0.38693, 0.448818l 0.38693,
 0.446498l 0.38693, 0.44419l 0.38693, 0.441894l 0.38693, 0.43961l 0.38693, 0.437336l 0.38693, 0.435075l 0.38693, 0.432825l 0.38693, 0.430586l 0.38693, 0.428359l 0.38693, 0.426143l 0.38693, 0.423938l 0.38693, 0.421744l 0.38693, 0.419562l 0.38693,
 0.417391l 0.38693, 0.41523l 0.38693, 0.413081l 0.38693, 0.410943l 0.38693, 0.408815l 0.38693, 0.406699l 0.38693, 0.404593l 0.38693, 0.402498l 0.38693, 0.400413l 0.38693, 0.39834l 0.38693, 0.396277l 0.38693, 0.394224l 0.38693, 0.392182l 0.38693,
 0.39015l 0.38693, 0.388129l 0.38693, 0.386118l 0.38693, 0.384118l 0.38693, 0.382127l 0.38693, 0.380147l 0.38693, 0.378177l 0.38693, 0.376217l 0.38693, 0.374268l 0.38693, 0.372328l 0.38693, 0.370398l 0.38693, 0.368478l 0.38693, 0.366568l 0.38693,
 0.364668l 0.38693, 0.362777l 0.38693, 0.360896l 0.38693, 0.359025l 0.38693, 0.357164l 0.38693, 0.355312l 0.38693, 0.353469l 0.38693, 0.351636l 0.38693, 0.349813l 0.38693, 0.347999l 0.38693, 0.346194l 0.38693, 0.344398l 0.38693, 0.342612l 0.38693,
 0.340835l 0.38693, 0.339067l 0.38693, 0.337309l 0.38693, 0.335559l 0.38693, 0.333818l 0.38693, 0.332087l 0.38693, 0.330364l 0.38693, 0.32865l 0.38693, 0.326945l 0.38693, 0.325249l 0.38693, 0.323561l 0.38693, 0.321883l 0.38693, 0.320212l 0.38693,
 0.318551l 0.38693, 0.316898l 0.38693, 0.315254l 0.38693, 0.313618l 0.38693, 0.31199l 0.38693, 0.310371l 0.38693, 0.308761l 0.38693, 0.307158l 0.38693, 0.305564l 0.38693, 0.303979l 0.38693, 0.302401l 0.38693, 0.300832l 0.38693, 0.29927l 0.38693,
 0.297717l 0.38693, 0.296172l 0.38693, 0.294634l 0.38693, 0.293105l 0.38693, 0.291584l 0.38693, 0.29007l 0.38693, 0.288565l 0.38693, 0.287067l 0.38693, 0.285577l 0.38693, 0.284094l 0.38693, 0.282619l 0.38693, 0.281152l 0.38693, 0.279693l 0.38693,
 0.278241l 0.38693, 0.276796l 0.38693, 0.275359l 0.38693, 0.27393l 0.38693, 0.272508l 0.38693, 0.271093l 0.38693, 0.269685l 0.38693, 0.268285l 0.38693, 0.266892l 0.38693, 0.265507l 0.38693, 0.264128l 0.38693, 0.262757l 0.38693, 0.261392l 0.38693,
 0.260035l 0.38693, 0.258685l 0.38693, 0.257342l 0.38693, 0.256005l 0.38693, 0.254676l 0.38693, 0.253354l 0.38693, 0.252038l 0.38693, 0.250729l 0.38693, 0.249428l 0.38693, 0.248132l 0.38693, 0.246844l 0.38693, 0.245562l 0.38693, 0.244287l 0.38693,
 0.243018l 0.38693, 0.241756l 0.38693, 0.240501l 0.38693, 0.239252l 0.38693, 0.238009l 0.38693, 0.236773l 0.38693, 0.235544l 0.38693, 0.234321l 0.38693, 0.233104l 0.38693, 0.231893l 0.38693, 0.230689l 0.38693, 0.229491l 0.38693, 0.228299l 0.38693,
 0.227113l 0.38693, 0.225934l 0.38693, 0.22476l 0.38693, 0.223593l 0.38693, 0.222432l 0.38693, 0.221276l 0.38693, 0.220127l 0.38693, 0.218984l 0.38693, 0.217846l 0.38693, 0.216715l 0.38693, 0.215589l 0.38693, 0.21447l 0.38693, 0.213356l 0.38693,
 0.212248l 0.38693, 0.211145l 0.38693, 0.210049l 0.38693, 0.208958l 0.38693, 0.207872l 0.38693, 0.206792l 0.38693, 0.205718l 0.38693, 0.20465l 0.38693, 0.203587l 0.38693, 0.202529l 0.38693, 0.201477l 0.38693, 0.200431l 0.38693, 0.19939l 0.38693,
 0.198354l 0.38693, 0.197324l 0.38693, 0.196299l 0.38693, 0.195279l 0.38693, 0.194265l 0.38693, 0.193256l 0.38693, 0.192252l 0.38693, 0.191253l 0.38693, 0.19026l 0.38693, 0.189271l 0.38693, 0.188288l 0.38693, 0.18731l 0.38693, 0.186337l 0.38693,
 0.185369l 0.38693, 0.184406l 0.38693, 0.183448l 0.38693, 0.182495l 0.38693, 0.181547l 0.38693, 0.180604l 0.38693, 0.179666l 0.38693, 0.178733l 0.38693, 0.177804l 0.38693, 0.176881l 0.38693, 0.175962l 0.38693, 0.175048l 0.38693, 0.174138l 0.38693,
 0.173234l 0.38693, 0.172334l 0.38693, 0.171439l 0.38693, 0.170548l 0.38693, 0.169662l 0.38693, 0.168781l 0.38693, 0.167904l 0.38693, 0.167032l 0.38693, 0.166164l 0.38693, 0.165301l 0.38693, 0.164442l 0.38693, 0.163588l 0.38693, 0.162738l 0.38693,
 0.161892l 0.38693, 0.161051l 0.38693, 0.160215l 0.38693, 0.159382l 0.38693, 0.158554l 0.38693, 0.157731l 0.38693, 0.156911l 0.38693, 0.156096l 0.38693, 0.155285l 0.38693, 0.154478l 0.38693, 0.153676l 0.38693, 0.152877l 0.38693, 0.152083l 0.38693,
 0.151293l 0.38693, 0.150507l 0.38693, 0.149725l 0.38693, 0.148947l 0.38693, 0.148174l 0.38693, 0.147404l 0.38693, 0.146638l 0.38693, 0.145876l 0.38693, 0.145118l 0.38693, 0.144364l 0.38693, 0.143614l 0.38693, 0.142868l 0.38693, 0.142126l 0.38693,
 0.141388l 0.38693, 0.140653l 0.38693, 0.139922l 0.38693, 0.139195l 0.38693, 0.138472l 0.38693, 0.137753l 0.38693, 0.137037l 0.38693, 0.136325l 0.38693, 0.135617l 0.38693, 0.134912l 0.38693, 0.134211l 0.38693, 0.133514l 0.38693, 0.13282l 0.38693,
 0.13213l 0.38693, 0.131444l 0.38693, 0.130761l 0.38693, 0.130082l 0.38693, 0.129406l 0.38693, 0.128733l 0.38693, 0.128065l 0.38693, 0.127399l 0.38693, 0.126737l 0.38693, 0.126079l 0.38693, 0.125424l 0.38693, 0.124772l 0.38693, 0.124124l 0.38693,
 0.123479l 0.38693, 0.122837l 0.38693, 0.122199l 0.38693, 0.121564l 0.38693, 0.120933l 0.38693, 0.120304l 0.38693, 0.119679l 0.38693, 0.119058l 0.38693, 0.118439l 0.38693, 0.117824l 0.38693, 0.117211l 0.38693, 0.116602l 0.38693, 0.115997l 0.38693,
 0.115394l 0.38693, 0.114794l 0.38693, 0.114198l 0.38693, 0.113605l 0.38693, 0.113014l 0.38693, 0.112427l 0.38693, 0.111843l 0.38693, 0.111262l 0.38693, 0.110684l 0.38693, 0.110109l 0.38693, 0.109537l 0.38693, 0.108968l 0.38693, 0.108401l 0.38693,
 0.107838l 0.38693, 0.107278l 0.38693, 0.106721l 0.38693, 0.106166l 0.38693, 0.105614l 0.38693, 0.105066l 0.38693, 0.10452l 0.38693, 0.103977l 0.38693, 0.103436l 0.38693, 0.102899l 0.38693, 0.102364l 0.38693, 0.101833l 0.38693, 0.101303l 0.38693,
 0.100777l 0.38693, 0.100254l 0.38693, 0.0997326l 0.38693, 0.0992144l 0.38693, 0.0986989l 0.38693, 0.0981861l 0.38693, 0.0976759l 0.38693, 0.0971684l 0.38693, 0.0966636l 0.38693, 0.0961613l 0.38693, 0.0956617l 0.38693, 0.0951646l 0.38693, 0.0946702l
 0.38693, 0.0941783l 0.38693, 0.093689l 0.38693, 0.0932022l 0.38693, 0.0927179l 0.38693, 0.0922362l 0.38693, 0.0917569l 0.38693, 0.0912802l 0.38693, 0.0908059l 0.38693, 0.0903341l 0.38693, 0.0898647l 0.38693, 0.0893978l 0.38693, 0.0889333l 0.38693,
 0.0884712l 0.38693, 0.0880115l 0.38693, 0.0875542l 0.38693, 0.0870993l 0.38693, 0.0866467l 0.38693, 0.0861965l 0.38693, 0.0857487l 0.38693, 0.0853031l 0.38693, 0.0848599l 0.38693, 0.084419l 0.38693, 0.0839803l 0.38693, 0.083544l 0.38693, 0.0831099l
 0.38693, 0.0826781l 0.38693, 0.0822485l 0.38693, 0.0818211l 0.38693, 0.081396l 0.38693, 0.0809731l 0.38693, 0.0805523l 0.38693, 0.0801338l 0.38693, 0.0797174l 0.38693, 0.0793032l 0.38693, 0.0788912l 0.38693, 0.0784812l 0.38693, 0.0780735l 0.38693,
 0.0776678l 0.38693, 0.0772642l 0.38693, 0.0768628l 0.38693, 0.0764634l 0.38693, 0.0760661l 0.38693, 0.0756709l 0.38693, 0.0752777l 0.38693, 0.0748865l 0.38693, 0.0744974l 0.38693, 0.0741104l 0.38693, 0.0737253l 0.38693, 0.0733422l 0.38693,
 0.0729611l 0.38693, 0.072582l 0.38693, 0.0722049l 0.38693, 0.0718297l 0.38693, 0.0714565l 0.38693, 0.0710852l 0.38693, 0.0707158l 0.38693, 0.0703484l 0.38693, 0.0699829l 0.38693, 0.0696192l 0.38693, 0.0692575l 0.38693, 0.0688976l 0.38693, 0.0685396l
 0.38693, 0.0681835l 0.38693, 0.0678292l 0.38693, 0.0674768l 0.38693, 0.0671262l 0.38693, 0.0667774l 0.38693, 0.0664304l 0.38693, 0.0660852l 0.38693, 0.0657419l 0.38693, 0.0654003l 0.38693, 0.0650604l 0.38693, 0.0647224l 0.38693, 0.0643861l 0.38693,
 0.0640515l 0.38693, 0.0637187l 0.38693, 0.0633876l 0.38693, 0.0630583l 0.38693, 0.0627306l 0.38693, 0.0624047l 0.38693, 0.0620804l 0.38693, 0.0617578l 0.38693, 0.0614369l 0.38693, 0.0611177l 0.38693, 0.0608001l 0.38693, 0.0604842l 0.38693,
 0.0601699l 0.38693, 0.0598573l 0.38693, 0.0595463l 0.38693, 0.0592369l 0.38693, 0.0589291l 0.38693, 0.0586229l 0.38693, 0.0583183l 0.38693, 0.0580152l 0.38693, 0.0577138l 0.38693, 0.0574139l 0.38693, 0.0571156l 0.38693, 0.0568188l 0.38693,
 0.0565236l 0.38693, 0.0562299l 0.38693, 0.0559377l 0.38693, 0.055647l 0.38693, 0.0553579l 0.38693, 0.0550702l 0.38693, 0.0547841l 0.38693, 0.0544994l 0.38693, 0.0542162l 0.38693, 0.0539345l 0.38693, 0.0536543l 0.38693, 0.0533755l 0.38693, 0.0530982l
 0.38693, 0.0528223l 0.38693, 0.0525478l 0.38693, 0.0522747l 0.38693, 0.0520031l 0.38693, 0.0517329l 0.38693, 0.0514641l 0.38693, 0.0511967l 0.38693, 0.0509307l 0.38693, 0.050666l 0.38693, 0.0504027l 0.38693, 0.0501409l 0.38693, 0.0498803l 0.38693,
 0.0496211l 0.38693, 0.0493633l 0.38693, 0.0491068l 0.38693, 0.0488516l 0.38693, 0.0485978l 0.38693, 0.0483453l 0.38693, 0.0480941l 0.38693, 0.0478442l 0.38693, 0.0475956l 0.38693, 0.0473482l 0.38693, 0.0471022l 0.38693, 0.0468575l 0.38693, 0.046614l
 0.38693, 0.0463718l 0.38693, 0.0461308l 0.38693, 0.0458911l 0.38693, 0.0456527l 0.38693, 0.0454155l 0.38693, 0.0451795l 0.38693, 0.0449447l 0.38693, 0.0447112l 0.38693, 0.0444789l 0.38693, 0.0442477l 0.38693, 0.0440178l 0.38693, 0.0437891l 0.38693,
 0.0435616l 0.38693, 0.0433352l 0.38693, 0.04311l 0.38693, 0.042886l 0.38693, 0.0426632l 0.38693, 0.0424415l 0.38693, 0.042221l 0.38693, 0.0420016l 0.38693, 0.0417833l 0.38693, 0.0415662l 0.38693, 0.0413502l 0.38693, 0.0411354l 0.38693, 0.0409216l
 0.38693, 0.040709l 0.38693, 0.0404975l 0.38693, 0.040287l 0.38693, 0.0400777l 0.38693, 0.0398695l 0.38693, 0.0396623l 0.38693, 0.0394562l 0.38693, 0.0392512l 0.38693, 0.0390472l 0.38693, 0.0388443l 0.38693, 0.0386425l 0.38693, 0.0384417l 0.38693,
 0.0382419l 0.38693, 0.0380432l 0.38693, 0.0378456l 0.38693, 0.0376489l 0.38693, 0.0374533l 0.38693, 0.0372587l 0.38693, 0.0370651l 0.38693, 0.0368725l 0.38693, 0.0366809l 0.38693, 0.0364903l 0.38693, 0.0363007l 0.38693, 0.036112l 0.38693, 0.0359244l
 0.38693, 0.0357377l 0.38693, 0.035552l 0.38693, 0.0353673l 0.38693, 0.0351835l 0.38693, 0.0350007l 0.38693, 0.0348188l 0.38693, 0.0346379l 0.38693, 0.0344579l 0.38693, 0.0342789l 0.38693, 0.0341007l 0.38693, 0.0339236l 0.38693, 0.0337473l 0.38693,
 0.0335719l 0.38693, 0.0333975l 0.38693, 0.0332239l 0.38693, 0.0330513l 0.38693, 0.0328796l 0.38693, 0.0327087l 0.38693, 0.0325388l 0.38693, 0.0323697l 0.38693, 0.0322015l 0.38693, 0.0320342l 0.38693, 0.0318677l 0.38693, 0.0317021l 0.38693,
 0.0315374l 0.38693, 0.0313735l 0.38693, 0.0312105l 0.38693, 0.0310483l 0.38693, 0.030887l 0.38693, 0.0307265l 0.38693, 0.0305668l 0.38693, 0.030408l 0.38693, 0.03025l 0.38693, 0.0300928l 0.38693, 0.0299364l 0.38693, 0.0297809l 0.38693, 0.0296261l
 0.38693, 0.0294722l 0.38693, 0.029319l 0.38693, 0.0291667l 0.38693, 0.0290151l 0.38693, 0.0288644l 0.38693, 0.0287144l 0.38693, 0.0285652l 0.38693, 0.0284167l 0.38693, 0.0282691l 0.38693, 0.0281222l 0.38693, 0.0279761l 0.38693, 0.0278307l 0.38693,
 0.0276861l 0.38693, 0.0275422l 0.38693, 0.0273991l 0.38693, 0.0272567l 0.38693, 0.0271151l 0.38693, 0.0269742l 0.38693, 0.026834l 0.38693, 0.0266946l 0.38693, 0.0265559l 0.38693, 0.0264179l 0.38693, 0.0262806l 0.38693, 0.0261441l 0.38693, 0.0260082l
 0.38693, 0.0258731l 0.38693, 0.0257386l 0.38693, 0.0256049l 0.38693, 0.0254719l 0.38693, 0.0253395l 0.38693, 0.0252078l 0.38693, 0.0250768l 0.38693, 0.0249465l 0.38693, 0.0248169l 0.38693, 0.024688l 0.38693, 0.0245597l 0.38693, 0.0244321l 0.38693,
 0.0243051l 0.38693, 0.0241788l 0.38693, 0.0240532l 0.38693, 0.0239282l 0.38693, 0.0238038l 0.38693, 0.0236802l 0.38693, 0.0235571l 0.38693, 0.0234347l 0.38693, 0.0233129l 0.38693, 0.0231918l 0.38693, 0.0230713l 0.38693, 0.0229514l 0.38693,
 0.0228321l 0.38693, 0.0227135l 0.38693, 0.0225955l 0.38693, 0.0224781l 0.38693, 0.0223613l 0.38693, 0.0222451l 0.38693, 0.0221295l 0.38693, 0.0220145l 0.38693, 0.0219001l 0.38693, 0.0217863l 0.38693, 0.0216731l 0.38693, 0.0215605l 0.38693,
 0.0214484l 0.38693, 0.021337l 0.38693, 0.0212261l 0.38693, 0.0211158l 0.38693, 0.0210061l 0.38693, 0.0208969l 0.38693, 0.0207884l 0.38693, 0.0206803l 0.38693, 0.0205729l 0.38693, 0.020466l 0.38693, 0.0203596l 0.38693, 0.0202538l 0.38693, 0.0201486l
 0.38693, 0.0200439l 0.38693, 0.0199397l 0.38693, 0.0198361l 0.38693, 0.0197331l 0.38693, 0.0196305l 0.38693, 0.0195285l 0.38693, 0.019427l 0.38693, 0.0193261l 0.38693, 0.0192257l 0.38693, 0.0191258l 0.38693, 0.0190264l 0.38693, 0.0189275l 0.38693,
 0.0188292l 0.38693, 0.0187313l 0.38693, 0.018634l 0.38693, 0.0185372l 0.38693, 0.0184409l 0.38693, 0.018345l 0.38693, 0.0182497l 0.38693, 0.0181549l 0.38693, 0.0180605l 0.38693, 0.0179667l 0.38693, 0.0178733l 0.38693, 0.0177805l 0.38693, 0.0176881l
 0.38693, 0.0175962l 0.38693, 0.0175047l 0.38693, 0.0174138l 0.38693, 0.0173233l 0.38693, 0.0172333l 0.38693, 0.0171437l 0.38693, 0.0170546l 0.38693, 0.016966l 0.38693, 0.0168779l 0.38693, 0.0167902l 0.38693, 0.0167029l 0.38693, 0.0166161l 0.38693,
 0.0165298l 0.38693, 0.0164439l 0.38693, 0.0163584l 0.38693, 0.0162734l 0.38693, 0.0161889l 0.38693, 0.0161048l 0.38693, 0.0160211l 0.38693, 0.0159378l 0.38693, 0.015855l 0.38693, 0.0157726l 0.38693, 0.0156907l 0.38693, 0.0156091l 0.38693, 0.015528l
 0.38693, 0.0154473l 0.38693, 0.0153671l 0.38693, 0.0152872l 0.38693, 0.0152078l 0.38693, 0.0151287l 0.38693, 0.0150501l 0.38693, 0.0149719l 0.38693, 0.0148941l 0.38693, 0.0148167l 0.38693, 0.0147397l 0.38693, 0.0146632l 0.38693, 0.014587l 0.38693,
 0.0145112l 0.38693, 0.0144358l 0.38693, 0.0143608l 0.38693, 0.0142861l 0.38693, 0.0142119l 0.38693, 0.014138l 0.38693, 0.0140646l 0.38693, 0.0139915" fill="none" stroke="#ff0000" stroke-width="2" stroke-dasharray=" 3, 3"/>
<path d="M133.213,323.96h 1.16079l 0.38693, -0.0361852l 0.38693, -0.0105267l 0.38693, -0.0111946l 0.38693, -0.0119044l 0.38693, -0.0126589l 0.38693, -0.0134607l 0.38693, -0.0143128l 0.38693, -0.0152182l 0.38693, -0.0161802l 0.38693, -0.0172022l
 0.38693, -0.0182879l 0.38693, -0.0194411l 0.38693, -0.0206659l 0.38693, -0.0219666l 0.38693, -0.0233478l 0.38693, -0.0248142l 0.38693, -0.0263709l 0.38693, -0.0280232l 0.38693, -0.0297767l 0.38693, -0.0316374l 0.38693, -0.0336113l 0.38693,
 -0.0357052l 0.38693, -0.0379257l 0.38693, -0.0402802l 0.38693, -0.0427761l 0.38693, -0.0454213l 0.38693, -0.0482241l 0.38693, -0.0511932l 0.38693, -0.0543375l 0.38693, -0.0576664l 0.38693, -0.0611897l 0.38693, -0.0649175l 0.38693, -0.0688604l
 0.38693, -0.0730292l 0.38693, -0.0774353l 0.38693, -0.0820902l 0.38693, -0.087006l 0.38693, -0.0921948l 0.38693, -0.0976693l 0.38693, -0.103442l 0.38693, -0.109527l 0.38693, -0.115936l 0.38693, -0.122684l 0.38693, -0.129783l 0.38693, -0.137247l
 0.38693, -0.145089l 0.38693, -0.153323l 0.38693, -0.161961l 0.38693, -0.171017l 0.38693, -0.180502l 0.38693, -0.190429l 0.38693, -0.200807l 0.38693, -0.211648l 0.38693, -0.22296l 0.38693, -0.234752l 0.38693, -0.247029l 0.38693, -0.259799l 0.38693,
 -0.273064l 0.38693, -0.286827l 0.38693, -0.301088l 0.38693, -0.315845l 0.38693, -0.331094l 0.38693, -0.346829l 0.38693, -0.363042l 0.38693, -0.37972l 0.38693, -0.39685l 0.38693, -0.414416l 0.38693, -0.432398l 0.38693, -0.450774l 0.38693, -0.469519l
 0.38693, -0.488606l 0.38693, -0.508005l 0.38693, -0.527684l 0.38693, -0.547606l 0.38693, -0.567737l 0.38693, -0.588036l 0.38693, -0.608463l 0.38693, -0.628977l 0.38693, -0.649533l 0.38693, -0.670089l 0.38693, -0.6906l 0.38693, -0.711021l 0.38693,
 -0.731308l 0.38693, -0.751418l 0.38693, -0.771307l 0.38693, -0.790934l 0.38693, -0.810259l 0.38693, -0.829244l 0.38693, -0.847852l 0.38693, -0.866048l 0.38693, -0.883803l 0.38693, -0.901085l 0.38693, -0.917869l 0.38693, -0.934132l 0.38693,
 -0.949852l 0.38693, -0.965012l 0.38693, -0.979596l 0.38693, -0.993594l 0.38693, -1.00699l 0.38693, -1.01979l 0.38693, -1.03198l 0.38693, -1.04356l 0.38693, -1.05453l 0.38693, -1.0649l 0.38693, -1.07466l 0.38693, -1.08383l 0.38693, -1.09241l 0.38693,
 -1.10042l 0.38693, -1.10786l 0.38693, -1.11474l 0.38693, -1.12109l 0.38693, -1.12691l 0.38693, -1.13221l 0.38693, -1.13702l 0.38693, -1.14135l 0.38693, -1.14521l 0.38693, -1.14862l 0.38693, -1.1516l 0.38693, -1.15417l 0.38693, -1.15633l 0.38693,
 -1.15811l 0.38693, -1.15952l 0.38693, -1.16058l 0.38693, -1.1613l 0.38693, -1.1617l 0.38693, -1.1618l 0.38693, -1.1616l 0.38693, -1.16112l 0.38693, -1.16038l 0.38693, -1.15939l 0.38693, -1.15816l 0.38693, -1.15671l 0.38693, -1.15504l 0.38693,
 -1.15317l 0.38693, -1.1511l 0.38693, -1.14886l 0.38693, -1.14644l 0.38693, -1.14386l 0.38693, -1.14113l 0.38693, -1.13826l 0.38693, -1.13525l 0.38693, -1.13211l 0.38693, -1.12886l 0.38693, -1.12549l 0.38693, -1.12202l 0.38693, -1.11845l 0.38693,
 -1.11479l 0.38693, -1.11104l 0.38693, -1.10721l 0.38693, -1.10331l 0.38693, -1.09934l 0.38693, -1.0953l 0.38693, -1.0912l 0.38693, -1.08705l 0.38693, -1.08285l 0.38693, -1.07859l 0.38693, -1.0743l 0.38693, -1.06996l 0.38693, -1.06559l 0.38693,
 -1.06118l 0.38693, -1.05675l 0.38693, -1.05228l 0.38693, -1.04779l 0.38693, -1.04328l 0.38693, -1.03874l 0.38693, -1.03419l 0.38693, -1.02962l 0.38693, -1.02504l 0.38693, -1.02045l 0.38693, -1.01585l 0.38693, -1.01123l 0.38693, -1.00662l 0.38693,
 -1.00199l 0.38693, -0.997366l 0.38693, -0.992737l 0.38693, -0.988107l 0.38693, -0.983477l 0.38693, -0.978849l 0.38693, -0.974223l 0.38693, -0.969601l 0.38693, -0.964983l 0.38693, -0.960371l 0.38693, -0.955765l 0.38693, -0.951165l 0.38693, -0.946574l
 0.38693, -0.941991l 0.38693, -0.937418l 0.38693, -0.932854l 0.38693, -0.928301l 0.38693, -0.923759l 0.38693, -0.919229l 0.38693, -0.91471l 0.38693, -0.910204l 0.38693, -0.905711l 0.38693, -0.901232l 0.38693, -0.896766l 0.38693, -0.892315l 0.38693,
 -0.887878l 0.38693, -0.883455l 0.38693, -0.879048l 0.38693, -0.874656l 0.38693, -0.87028l 0.38693, -0.86592l 0.38693, -0.861576l 0.38693, -0.857248l 0.38693, -0.852936l 0.38693, -0.848642l 0.38693, -0.844364l 0.38693, -0.840103l 0.38693, -0.835859l
 0.38693, -0.831633l 0.38693, -0.827424l 0.38693, -0.823232l 0.38693, -0.819058l 0.38693, -0.814902l 0.38693, -0.810763l 0.38693, -0.806642l 0.38693, -0.802539l 0.38693, -0.798454l 0.38693, -0.794387l 0.38693, -0.790339l 0.38693, -0.786308l 0.38693,
 -0.782295l 0.38693, -0.7783l 0.38693, -0.774324l 0.38693, -0.770366l 0.38693, -0.766426l 0.38693, -0.762504l 0.38693, -0.7586l 0.38693, -0.754714l 0.38693, -0.750847l 0.38693, -0.746998l 0.38693, -0.743166l 0.38693, -0.739353l 0.38693, -0.735558l
 0.38693, -0.731781l 0.38693, -0.728022l 0.38693, -0.724281l 0.38693, -0.720559l 0.38693, -0.716854l 0.38693, -0.713166l 0.38693, -0.709497l 0.38693, -0.705846l 0.38693, -0.702212l 0.38693, -0.698596l 0.38693, -0.694998l 0.38693, -0.691417l 0.38693,
 -0.687854l 0.38693, -0.684308l 0.38693, -0.68078l 0.38693, -0.67727l 0.38693, -0.673776l 0.38693, -0.6703l 0.38693, -0.666841l 0.38693, -0.6634l 0.38693, -0.659975l 0.38693, -0.656568l 0.38693, -0.653177l 0.38693, -0.649804l 0.38693, -0.646447l
 0.38693, -0.643107l 0.38693, -0.639784l 0.38693, -0.636478l 0.38693, -0.633188l 0.38693, -0.629915l 0.38693, -0.626658l 0.38693, -0.623417l 0.38693, -0.620193l 0.38693, -0.616986l 0.38693, -0.613794l 0.38693, -0.610619l 0.38693, -0.607459l 0.38693,
 -0.604316l 0.38693, -0.601189l 0.38693, -0.598077l 0.38693, -0.594981l 0.38693, -0.591901l 0.38693, -0.588837l 0.38693, -0.585788l 0.38693, -0.582755l 0.38693, -0.579737l 0.38693, -0.576735l 0.38693, -0.573748l 0.38693, -0.570776l 0.38693,
 -0.567819l 0.38693, -0.564877l 0.38693, -0.561951l 0.38693, -0.559039l 0.38693, -0.556142l 0.38693, -0.553261l 0.38693, -0.550393l 0.38693, -0.547541l 0.38693, -0.544703l 0.38693, -0.54188l 0.38693, -0.539071l 0.38693, -0.536276l 0.38693, -0.533496l
 0.38693, -0.53073l 0.38693, -0.527979l 0.38693, -0.525241l 0.38693, -0.522518l 0.38693, -0.519808l 0.38693, -0.517113l 0.38693, -0.514431l 0.38693, -0.511763l 0.38693, -0.509109l 0.38693, -0.506469l 0.38693, -0.503842l 0.38693, -0.501228l 0.38693,
 -0.498628l 0.38693, -0.496042l 0.38693, -0.493468l 0.38693, -0.490909l 0.38693, -0.488362l 0.38693, -0.485828l 0.38693, -0.483308l 0.38693, -0.4808l 0.38693, -0.478305l 0.38693, -0.475823l 0.38693, -0.473355l 0.38693, -0.470898l 0.38693, -0.468455l
 0.38693, -0.466024l 0.38693, -0.463605l 0.38693, -0.461199l 0.38693, -0.458806l 0.38693, -0.456425l 0.38693, -0.454056l 0.38693, -0.451699l 0.38693, -0.449355l 0.38693, -0.447023l 0.38693, -0.444703l 0.38693, -0.442394l 0.38693, -0.440098l 0.38693,
 -0.437813l 0.38693, -0.435541l 0.38693, -0.43328l 0.38693, -0.431031l 0.38693, -0.428793l 0.38693, -0.426567l 0.38693, -0.424353l 0.38693, -0.42215l 0.38693, -0.419958l 0.38693, -0.417778l 0.38693, -0.415609l 0.38693, -0.413451l 0.38693, -0.411305l
 0.38693, -0.409169l 0.38693, -0.407045l 0.38693, -0.404931l 0.38693, -0.402829l 0.38693, -0.400737l 0.38693, -0.398657l 0.38693, -0.396587l 0.38693, -0.394527l 0.38693, -0.392479l 0.38693, -0.390441l 0.38693, -0.388413l 0.38693, -0.386397l 0.38693,
 -0.38439l 0.38693, -0.382394l 0.38693, -0.380408l 0.38693, -0.378433l 0.38693, -0.376468l 0.38693, -0.374513l 0.38693, -0.372568l 0.38693, -0.370633l 0.38693, -0.368708l 0.38693, -0.366793l 0.38693, -0.364889l 0.38693, -0.362994l 0.38693, -0.361108l
 0.38693, -0.359233l 0.38693, -0.357367l 0.38693, -0.355511l 0.38693, -0.353665l 0.38693, -0.351828l 0.38693, -0.350001l 0.38693, -0.348183l 0.38693, -0.346375l 0.38693, -0.344576l 0.38693, -0.342786l 0.38693, -0.341006l 0.38693, -0.339235l 0.38693,
 -0.337473l 0.38693, -0.33572l 0.38693, -0.333976l 0.38693, -0.332241l 0.38693, -0.330516l 0.38693, -0.328799l 0.38693, -0.327091l 0.38693, -0.325392l 0.38693, -0.323702l 0.38693, -0.322021l 0.38693, -0.320348l 0.38693, -0.318684l 0.38693, -0.317029l
 0.38693, -0.315382l 0.38693, -0.313744l 0.38693, -0.312114l 0.38693, -0.310493l 0.38693, -0.30888l 0.38693, -0.307276l 0.38693, -0.305679l 0.38693, -0.304092l 0.38693, -0.302512l 0.38693, -0.30094l 0.38693, -0.299377l 0.38693, -0.297822l 0.38693,
 -0.296275l 0.38693, -0.294736l 0.38693, -0.293205l 0.38693, -0.291682l 0.38693, -0.290167l 0.38693, -0.288659l 0.38693, -0.28716l 0.38693, -0.285668l 0.38693, -0.284184l 0.38693, -0.282708l 0.38693, -0.281239l 0.38693, -0.279778l 0.38693, -0.278325l
 0.38693, -0.276879l 0.38693, -0.27544l 0.38693, -0.27401l 0.38693, -0.272586l 0.38693, -0.27117l 0.38693, -0.269761l 0.38693, -0.26836l 0.38693, -0.266966l 0.38693, -0.265579l 0.38693, -0.264199l 0.38693, -0.262827l 0.38693, -0.261461l 0.38693,
 -0.260103l 0.38693, -0.258752l 0.38693, -0.257407l 0.38693, -0.25607l 0.38693, -0.25474l 0.38693, -0.253416l 0.38693, -0.2521l 0.38693, -0.25079l 0.38693, -0.249487l 0.38693, -0.248191l 0.38693, -0.246902l 0.38693, -0.245619l 0.38693, -0.244343l
 0.38693, -0.243073l 0.38693, -0.241811l 0.38693, -0.240554l 0.38693, -0.239305l 0.38693, -0.238061l 0.38693, -0.236825l 0.38693, -0.235594l 0.38693, -0.23437l 0.38693, -0.233153l 0.38693, -0.231941l 0.38693, -0.230736l 0.38693, -0.229537l 0.38693,
 -0.228345l 0.38693, -0.227159l 0.38693, -0.225978l 0.38693, -0.224804l 0.38693, -0.223636l 0.38693, -0.222474l 0.38693, -0.221319l 0.38693, -0.220169l 0.38693, -0.219025l 0.38693, -0.217887l 0.38693, -0.216755l 0.38693, -0.215629l 0.38693,
 -0.214508l 0.38693, -0.213394l 0.38693, -0.212285l 0.38693, -0.211182l 0.38693, -0.210085l 0.38693, -0.208994l 0.38693, -0.207908l 0.38693, -0.206828l 0.38693, -0.205753l 0.38693, -0.204684l 0.38693, -0.203621l 0.38693, -0.202563l 0.38693, -0.20151l
 0.38693, -0.200463l 0.38693, -0.199422l 0.38693, -0.198386l 0.38693, -0.197355l 0.38693, -0.196329l 0.38693, -0.195309l 0.38693, -0.194295l 0.38693, -0.193285l 0.38693, -0.192281l 0.38693, -0.191282l 0.38693, -0.190288l 0.38693, -0.189299l 0.38693,
 -0.188316l 0.38693, -0.187337l 0.38693, -0.186364l 0.38693, -0.185396l 0.38693, -0.184432l 0.38693, -0.183474l 0.38693, -0.182521l 0.38693, -0.181573l 0.38693, -0.180629l 0.38693, -0.179691l 0.38693, -0.178757l 0.38693, -0.177828l 0.38693,
 -0.176904l 0.38693, -0.175985l 0.38693, -0.175071l 0.38693, -0.174161l 0.38693, -0.173256l 0.38693, -0.172356l 0.38693, -0.171461l 0.38693, -0.17057l 0.38693, -0.169683l 0.38693, -0.168802l 0.38693, -0.167925l 0.38693, -0.167052l 0.38693, -0.166184l
 0.38693, -0.165321l 0.38693, -0.164462l 0.38693, -0.163607l 0.38693, -0.162757l 0.38693, -0.161912l 0.38693, -0.16107l 0.38693, -0.160233l 0.38693, -0.159401l 0.38693, -0.158573l 0.38693, -0.157749l 0.38693, -0.156929l 0.38693, -0.156114l 0.38693,
 -0.155303l 0.38693, -0.154496l 0.38693, -0.153693l 0.38693, -0.152894l 0.38693, -0.1521l 0.38693, -0.15131l 0.38693, -0.150523l 0.38693, -0.149741l 0.38693, -0.148963l 0.38693, -0.148189l 0.38693, -0.147419l 0.38693, -0.146653l 0.38693, -0.145891l
 0.38693, -0.145133l 0.38693, -0.144379l 0.38693, -0.143629l 0.38693, -0.142883l 0.38693, -0.14214l 0.38693, -0.141402l 0.38693, -0.140667l 0.38693, -0.139936l 0.38693, -0.139209l 0.38693, -0.138486l 0.38693, -0.137766l 0.38693, -0.13705l 0.38693,
 -0.136338l 0.38693, -0.13563l 0.38693, -0.134925l 0.38693, -0.134224l 0.38693, -0.133527l 0.38693, -0.132833l 0.38693, -0.132143l 0.38693, -0.131456l 0.38693, -0.130773l 0.38693, -0.130093l 0.38693, -0.129417l 0.38693, -0.128745l 0.38693, -0.128076l
 0.38693, -0.127411l 0.38693, -0.126749l 0.38693, -0.12609l 0.38693, -0.125435l 0.38693, -0.124783l 0.38693, -0.124135l 0.38693, -0.12349l 0.38693, -0.122848l 0.38693, -0.12221l 0.38693, -0.121575l 0.38693, -0.120943l 0.38693, -0.120315l 0.38693,
 -0.119689l 0.38693, -0.119068l 0.38693, -0.118449l 0.38693, -0.117833l 0.38693, -0.117221l 0.38693, -0.116612l 0.38693, -0.116006l 0.38693, -0.115403l 0.38693, -0.114804l 0.38693, -0.114207l 0.38693, -0.113614l 0.38693, -0.113023l 0.38693,
 -0.112436l 0.38693, -0.111852l 0.38693, -0.111271l 0.38693, -0.110693l 0.38693, -0.110117l 0.38693, -0.109545l 0.38693, -0.108976l 0.38693, -0.10841l 0.38693, -0.107846l 0.38693, -0.107286l 0.38693, -0.106729l 0.38693, -0.106174l 0.38693, -0.105622l
 0.38693, -0.105074l 0.38693, -0.104528l 0.38693, -0.103984l 0.38693, -0.103444l 0.38693, -0.102907l 0.38693, -0.102372l 0.38693, -0.10184l 0.38693, -0.101311l 0.38693, -0.100784l 0.38693, -0.100261l 0.38693, -0.0997398l 0.38693, -0.0992215l 0.38693,
 -0.0987059l 0.38693, -0.0981931l 0.38693, -0.0976828l 0.38693, -0.0971753l 0.38693, -0.0966703l 0.38693, -0.096168l 0.38693, -0.0956683l 0.38693, -0.0951712l 0.38693, -0.0946767l 0.38693, -0.0941848l 0.38693, -0.0936954l 0.38693, -0.0932085l
 0.38693, -0.0927242l 0.38693, -0.0922424l 0.38693, -0.0917631l 0.38693, -0.0912863l 0.38693, -0.090812l 0.38693, -0.0903401l 0.38693, -0.0898707l 0.38693, -0.0894037l 0.38693, -0.0889391l 0.38693, -0.088477l 0.38693, -0.0880173l 0.38693, -0.0875599l
 0.38693, -0.0871049l 0.38693, -0.0866523l 0.38693, -0.0862021l 0.38693, -0.0857542l 0.38693, -0.0853086l 0.38693, -0.0848653l 0.38693, -0.0844243l 0.38693, -0.0839857l 0.38693, -0.0835493l 0.38693, -0.0831151l 0.38693, -0.0826832l 0.38693,
 -0.0822536l 0.38693, -0.0818262l 0.38693, -0.081401l 0.38693, -0.0809781l 0.38693, -0.0805573l 0.38693, -0.0801387l 0.38693, -0.0797223l 0.38693, -0.079308l 0.38693, -0.0788959l 0.38693, -0.078486l 0.38693, -0.0780782l 0.38693, -0.0776725l 0.38693,
 -0.0772689l 0.38693, -0.0768674l 0.38693, -0.076468l 0.38693, -0.0760706l 0.38693, -0.0756753l 0.38693, -0.0752821l 0.38693, -0.0748909l 0.38693, -0.0745018l 0.38693, -0.0741147l 0.38693, -0.0737296l 0.38693, -0.0733465l 0.38693, -0.0729653l
 0.38693, -0.0725862l 0.38693, -0.072209l 0.38693, -0.0718338l 0.38693, -0.0714606l 0.38693, -0.0710892l 0.38693, -0.0707199l 0.38693, -0.0703524l 0.38693, -0.0699868l 0.38693, -0.0696232l 0.38693, -0.0692614l 0.38693, -0.0689015l 0.38693,
 -0.0685435l 0.38693, -0.0681873l 0.38693, -0.067833l 0.38693, -0.0674805l 0.38693, -0.0671299l 0.38693, -0.0667811l 0.38693, -0.0664341l 0.38693, -0.0660889l 0.38693, -0.0657454l 0.38693, -0.0654038l 0.38693, -0.065064l 0.38693, -0.0647259l 0.38693,
 -0.0643896l 0.38693, -0.064055l 0.38693, -0.0637221l 0.38693, -0.063391l 0.38693, -0.0630616l 0.38693, -0.062734l 0.38693, -0.062408l 0.38693, -0.0620837l 0.38693, -0.0617611l 0.38693, -0.0614402l 0.38693, -0.0611209l 0.38693, -0.0608033l 0.38693,
 -0.0604874l 0.38693, -0.0601731l 0.38693, -0.0598604l 0.38693, -0.0595494l 0.38693, -0.0592399l 0.38693, -0.0589321l 0.38693, -0.0586259l 0.38693, -0.0583213l 0.38693, -0.0580182l 0.38693, -0.0577167l 0.38693, -0.0574168l 0.38693, -0.0571185l
 0.38693, -0.0568217l 0.38693, -0.0565264l 0.38693, -0.0562327l 0.38693, -0.0559405l 0.38693, -0.0556498l 0.38693, -0.0553607l 0.38693, -0.055073l 0.38693, -0.0547868l 0.38693, -0.0545021l 0.38693, -0.0542189l 0.38693, -0.0539372l 0.38693,
 -0.0536569l 0.38693, -0.0533781l 0.38693, -0.0531008l 0.38693, -0.0528248l 0.38693, -0.0525504l 0.38693, -0.0522773l 0.38693, -0.0520057l 0.38693, -0.0517354l 0.38693, -0.0514666l 0.38693, -0.0511992l 0.38693, -0.0509331l 0.38693, -0.0506685l
 0.38693, -0.0504052l 0.38693, -0.0501433l 0.38693, -0.0498827l 0.38693, -0.0496235l 0.38693, -0.0493657l 0.38693, -0.0491091l 0.38693, -0.048854l 0.38693, -0.0486001l 0.38693, -0.0483476l 0.38693, -0.0480963l 0.38693, -0.0478464l 0.38693,
 -0.0475978l 0.38693, -0.0473505l 0.38693, -0.0471044l 0.38693, -0.0468597l 0.38693, -0.0466162l 0.38693, -0.046374l 0.38693, -0.046133l 0.38693, -0.0458933l 0.38693, -0.0456548l 0.38693, -0.0454176l 0.38693, -0.0451816l 0.38693, -0.0449468l 0.38693,
 -0.0447132l 0.38693, -0.0444809l 0.38693, -0.0442498l 0.38693, -0.0440198l 0.38693, -0.0437911l 0.38693, -0.0435636l 0.38693, -0.0433372l 0.38693, -0.043112l 0.38693, -0.042888l 0.38693, -0.0426651l 0.38693, -0.0424434l 0.38693, -0.0422229l 0.38693,
 -0.0420035l 0.38693, -0.0417852l 0.38693, -0.0415681l 0.38693, -0.0413521l 0.38693, -0.0411372l 0.38693, -0.0409235l 0.38693, -0.0407108l 0.38693, -0.0404993l 0.38693, -0.0402888l 0.38693, -0.0400795l 0.38693, -0.0398712l 0.38693, -0.039664l
 0.38693, -0.0394579l 0.38693, -0.0392529l 0.38693, -0.0390489l 0.38693, -0.038846l 0.38693, -0.0386442l 0.38693, -0.0384434l 0.38693, -0.0382436l 0.38693, -0.0380449l 0.38693, -0.0378472l 0.38693, -0.0376505l 0.38693, -0.0374549l 0.38693,
 -0.0372603l 0.38693, -0.0370667l 0.38693, -0.0368741l 0.38693, -0.0366824l 0.38693, -0.0364918l 0.38693, -0.0363022l 0.38693, -0.0361136l 0.38693, -0.0359259l 0.38693, -0.0357393l 0.38693, -0.0355535l 0.38693, -0.0353688l 0.38693, -0.035185l
 0.38693, -0.0350022l 0.38693, -0.0348203l 0.38693, -0.0346394l 0.38693, -0.0344594l 0.38693, -0.0342803l 0.38693, -0.0341022l 0.38693, -0.033925l 0.38693, -0.0337487l 0.38693, -0.0335733l 0.38693, -0.0333989l 0.38693, -0.0332253l 0.38693,
 -0.0330527l 0.38693, -0.0328809l 0.38693, -0.0327101l 0.38693, -0.0325401l 0.38693, -0.032371l 0.38693, -0.0322028l 0.38693, -0.0320355l 0.38693, -0.031869l 0.38693, -0.0317034l 0.38693, -0.0315387l 0.38693, -0.0313748l 0.38693, -0.0312118l 0.38693,
 -0.0310496l 0.38693, -0.0308882l 0.38693, -0.0307277l 0.38693, -0.0305681l 0.38693, -0.0304092l 0.38693, -0.0302512l 0.38693, -0.030094l 0.38693, -0.0299377l 0.38693, -0.0297821l 0.38693, -0.0296273l 0.38693, -0.0294734l 0.38693, -0.0293202l
 0.38693, -0.0291679l 0.38693, -0.0290163l 0.38693, -0.0288655l 0.38693, -0.0287155l 0.38693, -0.0285663l 0.38693, -0.0284179l 0.38693, -0.0282702l 0.38693, -0.0281233l 0.38693, -0.0279772l 0.38693, -0.0278318l 0.38693, -0.0276872l 0.38693,
 -0.0275433l 0.38693, -0.0274002l 0.38693, -0.0272578l 0.38693, -0.0271162l 0.38693, -0.0269753l 0.38693, -0.0268351l 0.38693, -0.0266957l 0.38693, -0.026557l 0.38693, -0.026419l 0.38693, -0.0262817l 0.38693, -0.0261451l 0.38693, -0.0260093l 0.38693,
 -0.0258741l 0.38693, -0.0257397l 0.38693, -0.0256059l 0.38693, -0.0254729l 0.38693, -0.0253405l 0.38693, -0.0252088l 0.38693, -0.0250778l 0.38693, -0.0249475l 0.38693, -0.0248179l 0.38693, -0.0246889l 0.38693, -0.0245606l 0.38693, -0.024433l
 0.38693, -0.0243061l 0.38693, -0.0241798l 0.38693, -0.0240541l 0.38693, -0.0239291l 0.38693, -0.0238048l 0.38693, -0.0236811l 0.38693, -0.023558l 0.38693, -0.0234356l 0.38693, -0.0233138l 0.38693, -0.0231927l 0.38693, -0.0230722l 0.38693,
 -0.0229523l 0.38693, -0.022833l 0.38693, -0.0227144l 0.38693, -0.0225963l 0.38693, -0.0224789l 0.38693, -0.0223621l 0.38693, -0.0222459l 0.38693, -0.0221303l 0.38693, -0.0220153l 0.38693, -0.0219009l 0.38693, -0.0217871l 0.38693, -0.0216739l
 0.38693, -0.0215613l 0.38693, -0.0214493l 0.38693, -0.0213378l 0.38693, -0.0212269l 0.38693, -0.0211166l 0.38693, -0.0210069l 0.38693, -0.0208977l 0.38693, -0.0207892l 0.38693, -0.0206811l 0.38693, -0.0205737l 0.38693, -0.0204668l 0.38693,
 -0.0203604l 0.38693, -0.0202546l 0.38693, -0.0201494l 0.38693, -0.0200447l 0.38693, -0.0199405l 0.38693, -0.0198369l 0.38693, -0.0197338l 0.38693, -0.0196313l 0.38693, -0.0195293l 0.38693, -0.0194278l 0.38693, -0.0193268l 0.38693, -0.0192264l
 0.38693, -0.0191265l 0.38693, -0.0190271l 0.38693, -0.0189282l 0.38693, -0.0188299l 0.38693, -0.018732l 0.38693, -0.0186347l 0.38693, -0.0185379l 0.38693, -0.0184415l 0.38693, -0.0183457l 0.38693, -0.0182504l 0.38693, -0.0181556l 0.38693,
 -0.0180612l 0.38693, -0.0179674l 0.38693, -0.017874l 0.38693, -0.0177811l 0.38693, -0.0176887l 0.38693, -0.0175968l 0.38693, -0.0175054l 0.38693, -0.0174144l 0.38693, -0.0173239l 0.38693, -0.0172339l 0.38693, -0.0171443l 0.38693, -0.0170553l
 0.38693, -0.0169666l 0.38693, -0.0168785l 0.38693, -0.0167908l 0.38693, -0.0167035l 0.38693, -0.0166167l 0.38693, -0.0165304l 0.38693, -0.0164445l 0.38693, -0.016359l 0.38693, -0.016274l 0.38693, -0.0161895l 0.38693, -0.0161053l 0.38693, -0.0160217l
 0.38693, -0.0159384l 0.38693, -0.0158556l 0.38693, -0.0157732l 0.38693, -0.0156912l 0.38693, -0.0156097l 0.38693, -0.0155286l 0.38693, -0.0154479l 0.38693, -0.0153676l 0.38693, -0.0152878l 0.38693, -0.0152083l 0.38693, -0.0151293l 0.38693,
 -0.0150507l 0.38693, -0.0149725l 0.38693, -0.0148947l 0.38693, -0.0148173l 0.38693, -0.0147403l 0.38693, -0.0146637l 0.38693, -0.0145875l 0.38693, -0.0145117l 0.38693, -0.0144363l 0.38693, -0.0143613l 0.38693, -0.0142866l 0.38693, -0.0142124l
 0.38693, -0.0141386l 0.38693, -0.0140651l 0.38693, -0.013992" fill="none" stroke="#00ff00" stroke-width="2" stroke-dasharray=" 3, 3"/>
<path d="M133.213,110.823l 0.38693, 66.2989l 0.38693, 41.4942l 0.38693, 29.8575l 0.38693, 23.1204l 0.38693, 14.3928l 0.38693, 11.4836l 0.38693, 8.72757l 0.38693, 4.28723l 0.38693, 2.90919l 0.38693, 2.44984l 0.38693, 1.83738l 0.38693, 1.22492l
 0.38693, 2.29673l 0.38693, 0.765576l 0.38693, 0.459346l 0.38693, 0.153115l 0.38693, 0.153115l 0.38693, 0.612461h 1.16079l 0.38693, 0.153115h 0.38693l 0.38693, 0.153115h 1.93465l 0.38693, 0.153115h 374.935" fill="none" stroke="#0000ff"
 stroke-width="2"/>
<path d="M133.213,230.1l 0.38693, -65.2271l 0.38693, -41.3411l 0.38693, -29.7043l 0.38693, -22.5079l 0.38693, -13.9335l 0.38693, -11.4836l 0.38693, 43.7909l 0.38693, 59.2556l 0.38693, 45.169l 0.38693, 35.829l 0.38693, 29.8575l 0.38693, 19.5987l
 0.38693, 10.2587l 0.38693, 10.1056l 0.38693, 7.50264l 0.38693, 4.28723l 0.38693, 3.36853l 0.38693, 1.83738l 0.38693, 1.07181l 0.38693, 2.29673l 0.38693, 1.37804l 0.38693, 0.765576l 0.38693, 0.30623l 0.38693, 0.30623l 0.38693, 0.30623l 0.38693,
 0.30623l 0.38693, 0.153115h 1.16079l 0.38693, 0.153115h 2.32158l 0.38693, 0.153115h 371.839" fill="none" stroke="#ff0000" stroke-width="2"/>
<path d="M133.213,323.96h 2.70851l 0.38693, -0.30623l 0.38693, -0.30623l 0.38693, -0.30623l 0.38693, -1.07181l 0.38693, -0.918691l 0.38693, -1.07181l 0.38693, -1.37804l 0.38693, -2.14361l 0.38693, -1.83738l 0.38693, -1.9905l 0.38693, -3.0623l
 0.38693, -0.459346l 0.38693, -1.68427l 0.38693, -0.765576l 0.38693, -1.83738l 0.38693, -1.22492l 0.38693, -1.37804l 0.38693, -1.9905l 0.38693, -2.14361l 0.38693, -1.53115l 0.38693, -1.53115l 0.38693, -0.612461l 0.38693, -2.14361l 0.38693, -1.22492l
 0.38693, -1.37804l 0.38693, -1.83738l 0.38693, -1.83738l 0.38693, -0.918691l 0.38693, -1.83738l 0.38693, -2.29673l 0.38693, -1.07181l 0.38693, -2.29673l 0.38693, -0.765576l 0.38693, -1.83738l 0.38693, -1.9905l 0.38693, -1.22492l 0.38693, -1.53115l
 0.38693, -0.918691l 0.38693, -1.37804l 0.38693, -0.612461l 0.38693, -1.22492l 0.38693, -0.612461l 0.38693, -0.918691l 0.38693, -0.918691l 0.38693, -0.612461l 0.38693, -1.07181l 0.38693, -1.37804l 0.38693, -0.765576l 0.38693, -0.918691l 0.38693,
 -0.918691l 0.38693, -1.37804l 0.38693, -1.9905l 0.38693, -1.37804l 0.38693, -1.37804l 0.38693, -1.37804l 0.38693, -1.83738l 0.38693, -0.765576l 0.38693, -1.22492l 0.38693, -1.37804l 0.38693, -0.612461l 0.38693, -1.37804l 0.38693, -1.07181l 0.38693,
 -1.22492l 0.38693, -0.918691l 0.38693, -0.765576l 0.38693, -1.68427l 0.38693, -0.765576l 0.38693, -0.765576l 0.38693, -0.612461l 0.38693, -0.459346l 0.38693, -0.30623l 0.38693, -1.37804l 0.38693, -0.918691l 0.38693, -0.30623l 0.38693, -0.765576l
 0.38693, -0.765576l 0.38693, -1.07181l 0.38693, -1.22492l 0.38693, -1.07181l 0.38693, -0.765576l 0.38693, -1.07181l 0.38693, -1.07181l 0.38693, -1.37804l 0.38693, -1.07181l 0.38693, -0.459346l 0.38693, -1.37804l 0.38693, -1.07181l 0.38693,
 -0.765576l 0.38693, -0.918691l 0.38693, -1.07181l 0.38693, -0.765576l 0.38693, -0.918691l 0.38693, -0.918691l 0.38693, -0.765576l 0.38693, -1.22492l 0.38693, -0.918691l 0.38693, -1.37804l 0.38693, -1.07181l 0.38693, -1.37804l 0.38693, -1.07181l
 0.38693, -0.918691l 0.38693, -0.459346l 0.38693, -0.30623l 0.38693, -1.22492l 0.38693, -0.459346l 0.38693, -0.612461l 0.38693, -0.612461l 0.38693, -0.918691l 0.38693, -0.459346l 0.38693, -0.765576l 0.38693, -0.765576l 0.38693, -0.459346l 0.38693,
 -0.765576l 0.38693, -1.37804l 0.38693, -0.459346l 0.38693, -1.53115l 0.38693, -0.765576l 0.38693, -1.22492l 0.38693, -0.612461l 0.38693, -1.53115l 0.38693, -0.459346l 0.38693, -0.612461l 0.38693, -1.68427l 0.38693, -0.765576l 0.38693, -1.07181l
 0.38693, -0.765576l 0.38693, -1.22492l 0.38693, -0.918691l 0.38693, -0.918691l 0.38693, -0.918691l 0.38693, -1.37804l 0.38693, -0.30623l 0.38693, -1.07181l 0.38693, -0.612461l 0.38693, -0.612461l 0.38693, -1.22492l 0.38693, -1.07181l 0.38693,
 -0.765576l 0.38693, -0.612461l 0.38693, -0.153115l 0.38693, -0.459346l 0.38693, -0.765576l 0.38693, -0.612461l 0.38693, -0.612461l 0.38693, -0.459346l 0.38693, -0.612461l 0.38693, -0.765576l 0.38693, -0.765576l 0.38693, -0.153115l 0.38693, -1.37804l
 0.38693, -0.612461l 0.38693, -0.765576l 0.38693, -0.612461l 0.38693, -0.612461l 0.38693, -0.612461l 0.38693, -0.612461l 0.38693, -0.918691l 0.38693, -0.30623l 0.38693, -1.22492l 0.38693, -0.153115l 0.38693, -0.765576l 0.38693, -0.765576l 0.38693,
 -0.153115l 0.38693, -0.612461l 0.38693, -0.918691l 0.38693, -1.37804l 0.38693, -0.765576l 0.38693, -0.30623l 0.38693, -1.07181l 0.38693, -0.918691l 0.38693, -0.153115l 0.38693, -0.153115l 0.38693, -0.765576l 0.38693, -0.765576l 0.38693, -0.765576l
 0.38693, -0.459346l 0.38693, -0.459346l 0.38693, -0.459346l 0.38693, -0.459346l 0.38693, -1.53115l 0.38693, -0.765576l 0.38693, -0.765576l 0.38693, -0.459346l 0.38693, -0.30623l 0.38693, -0.30623l 0.38693, -0.459346l 0.38693, -0.612461l 0.38693,
 -0.459346l 0.38693, -0.765576l 0.38693, -0.153115l 0.38693, -0.30623l 0.38693, -0.30623l 0.38693, -0.459346l 0.38693, -0.918691l 0.38693, -0.612461l 0.38693, -0.153115l 0.38693, -1.07181l 0.38693, -1.07181l 0.38693, -0.612461l 0.38693, -0.153115l
 0.38693, -0.765576l 0.38693, -0.765576l 0.38693, -0.612461l 0.38693, -0.612461l 0.38693, -0.612461l 0.38693, -0.459346l 0.38693, -0.459346l 0.38693, -0.459346l 0.38693, -0.612461l 0.38693, -0.918691l 0.38693, -0.459346l 0.38693, -0.30623l 0.38693,
 -0.765576l 0.38693, -0.459346l 0.38693, -1.22492l 0.38693, -0.153115l 0.38693, -0.153115l 0.38693, -0.30623l 0.38693, -0.459346l 0.38693, -0.30623l 0.38693, -0.153115l 0.38693, -0.459346l 0.38693, -0.765576l 0.38693, -0.30623l 0.38693, -0.459346l
 0.38693, -0.153115l 0.38693, -0.30623h 0.38693l 0.38693, -0.30623l 0.38693, -0.153115l 0.38693, -0.30623l 0.38693, -0.459346l 0.38693, -0.30623l 0.38693, -0.153115l 0.38693, -0.459346l 0.38693, -0.459346l 0.38693, -0.30623h 0.38693l 0.38693,
 -0.765576l 0.38693, -0.612461l 0.38693, -0.153115l 0.38693, -0.459346l 0.38693, -0.30623l 0.38693, -0.765576l 0.38693, -0.30623l 0.38693, -0.30623h 0.38693l 0.38693, -0.153115l 0.38693, -0.459346l 0.38693, -0.459346h 0.38693l 0.38693, -0.459346l
 0.38693, -0.30623l 0.38693, -0.612461l 0.38693, -0.153115l 0.38693, -0.30623l 0.38693, -0.153115l 0.38693, -0.153115h 0.38693l 0.38693, -0.153115l 0.38693, -0.765576l 0.38693, -0.30623l 0.38693, -0.459346l 0.38693, -0.612461h 0.38693l 0.38693,
 -0.30623l 0.38693, -0.459346l 0.38693, -0.459346l 0.38693, -0.30623l 0.38693, -0.153115l 0.38693, -0.459346l 0.38693, -0.30623l 0.38693, -0.459346l 0.38693, -0.30623l 0.38693, -0.30623l 0.38693, -0.612461l 0.38693, -0.459346l 0.38693, -0.612461l
 0.38693, -0.30623l 0.38693, -0.459346l 0.38693, -0.153115l 0.38693, -0.153115h 0.38693l 0.38693, -0.30623l 0.38693, -0.30623l 0.38693, -0.459346l 0.38693, -0.30623l 0.38693, -1.07181h 0.38693l 0.38693, -0.459346l 0.38693, -0.30623l 0.38693,
 -0.459346l 0.38693, -0.153115l 0.38693, -0.30623h 1.16079l 0.38693, -0.153115l 0.38693, -0.459346l 0.38693, -0.30623h 0.38693l 0.38693, -0.153115l 0.38693, -0.30623l 0.38693, -0.153115l 0.38693, -0.153115l 0.38693, -0.153115l 0.38693, -0.30623l
 0.38693, -0.459346h 0.38693l 0.38693, -0.30623l 0.38693, -0.30623h 0.38693l 0.38693, -0.30623l 0.38693, -0.612461l 0.38693, -0.153115l 0.38693, -0.153115h 0.38693l 0.38693, -0.153115l 0.38693, -0.30623h 0.773859l 0.38693, -0.153115l 0.38693,
 -0.459346l 0.38693, -0.30623l 0.38693, -0.30623l 0.38693, -0.153115l 0.38693, -0.30623l 0.38693, -0.459346l 0.38693, -0.153115l 0.38693, -0.30623l 0.38693, -0.459346l 0.38693, -0.765576l 0.38693, -0.459346l 0.38693, -0.153115h 0.38693l 0.38693,
 -0.153115l 0.38693, -0.153115l 0.38693, -0.153115h 0.38693l 0.38693, -0.153115l 0.38693, -0.153115l 0.38693, -0.153115l 0.38693, -0.153115l 0.38693, -0.459346l 0.38693, -0.153115l 0.38693, -0.30623l 0.38693, -0.153115l 0.38693, -0.30623l 0.38693,
 -0.30623l 0.38693, -0.612461l 0.38693, -0.153115l 0.38693, -0.153115l 0.38693, -0.30623l 0.38693, -0.153115h 1.54772l 0.38693, -0.153115h 0.38693l 0.38693, -0.153115l 0.38693, -0.459346l 0.38693, -0.30623l 0.38693, -0.153115l 0.38693, -0.153115l
 0.38693, -0.459346h 0.773859l 0.38693, -0.30623l 0.38693, -0.153115h 0.38693l 0.38693, -0.459346h 0.38693l 0.38693, -1.07181h 1.16079l 0.38693, -0.30623l 0.38693, -0.765576l 0.38693, -0.153115l 0.38693, -0.30623l 0.38693, -0.30623l 0.38693,
 -0.30623l 0.38693, -0.153115l 0.38693, -0.153115l 0.38693, -0.153115h 0.38693l 0.38693, -0.153115l 0.38693, -0.30623l 0.38693, -0.153115l 0.38693, -0.153115h 0.773859l 0.38693, -0.30623h 1.16079l 0.38693, -0.153115l 0.38693, -0.30623l 0.38693,
 -0.459346h 0.38693l 0.38693, -0.153115h 1.54772l 0.38693, -0.153115l 0.38693, -0.153115l 0.38693, -0.153115l 0.38693, -0.153115h 0.38693l 0.38693, -0.30623h 0.38693l 0.38693, -0.153115h 1.16079l 0.38693, -0.30623h 1.54772l 0.38693, -0.153115h
 0.773859l 0.38693, -0.30623l 0.38693, -0.153115h 0.38693l 0.38693, -0.153115h 0.38693l 0.38693, -0.30623h 0.38693l 0.38693, -0.30623l 0.38693, -0.153115l 0.38693, -0.153115l 0.38693, -0.30623l 0.38693, -0.153115l 0.38693, -0.153115l 0.38693,
 -0.153115l 0.38693, -0.30623h 0.773859l 0.38693, -0.153115l 0.38693, -0.30623h 0.38693l 0.38693, -0.153115l 0.38693, -0.30623h 1.16079l 0.38693, -0.153115h 3.8693l 0.38693, -0.153115l 0.38693, -0.153115h 0.38693l 0.38693, -0.153115h 1.16079l
 0.38693, -0.153115l 0.38693, -0.30623h 0.773859l 0.38693, -0.30623h 1.16079l 0.38693, -0.153115h 0.38693l 0.38693, -0.30623l 0.38693, -0.153115l 0.38693, -0.153115h 0.38693l 0.38693, -0.153115h 0.38693l 0.38693, -0.153115l 0.38693, -0.153115h
 0.38693l 0.38693, -0.153115h 0.773859l 0.38693, -0.153115h 0.38693l 0.38693, -0.153115l 0.38693, -0.153115l 0.38693, -0.153115h 0.38693l 0.38693, -0.153115h 0.773859l 0.38693, -0.153115h 0.38693l 0.38693, -0.153115h 0.773859l 0.38693, -0.30623h
 0.773859l 0.38693, -0.153115l 0.38693, -0.153115h 0.38693l 0.38693, -0.153115h 0.38693l 0.38693, -0.153115h 0.38693l 0.38693, -0.30623l 0.38693, -0.153115h 1.16079l 0.38693, -0.153115h 0.773859l 0.38693, -0.153115h 0.38693l 0.38693, -0.30623h
 1.54772l 0.38693, -0.153115h 1.93465l 0.38693, -0.153115h 0.38693l 0.38693, -0.153115h 3.09544l 0.38693, -0.153115l 0.38693, -0.153115h 1.16079l 0.38693, -0.153115h 1.54772l 0.38693, -0.30623h 1.16079l 0.38693, -0.153115h 0.38693l 0.38693,
 -0.153115h 0.773859l 0.38693, -0.153115h 0.38693l 0.38693, -0.153115l 0.38693, -0.153115h 0.38693l 0.38693, -0.153115h 0.38693l 0.38693, -0.153115h 1.16079l 0.38693, -0.153115h 1.16079l 0.38693, -0.153115h 0.38693l 0.38693, -0.153115l 0.38693,
 -0.153115h 1.16079l 0.38693, -0.153115l 0.38693, -0.153115h 2.70851l 0.38693, -0.153115l 0.38693, -0.153115l 0.38693, -0.153115l 0.38693, -0.153115l 0.38693, -0.153115h 3.8693l 0.38693, -0.153115h 0.773859l 0.38693, -0.153115h 0.38693l 0.38693,
 -0.30623h 0.38693l 0.38693, -0.153115h 3.48237l 0.38693, -0.153115h 0.38693l 0.38693, -0.153115h 6.96473l 0.38693, -0.153115l 0.38693, -0.30623h 9.28631l 0.38693, -0.153115h 0.38693l 0.38693, -0.153115h 5.03008l 0.38693, -0.30623h 1.16079l 0.38693,
 -0.153115h 3.8693l 0.38693, -0.153115h 1.93465l 0.38693, -0.153115h 1.54772l 0.38693, -0.30623h 1.93465l 0.38693, -0.153115h 3.09544l 0.38693, -0.153115h 1.54772l 0.38693, -0.153115h 0.773859l 0.38693, -0.153115h 1.93465l 0.38693, -0.153115h
 10.4471l 0.38693, -0.153115h 21.2811l 0.38693, -0.153115h 0.773859l 0.38693, -0.153115h 1.93465l 0.38693, -0.153115h 0.773859l 0.38693, -0.153115h 9.28631l 0.38693, -0.153115h 13.1556l 0.38693, -0.153115h 1.93465l 0.38693, -0.153115h 11.9948l
 0.38693, -0.153115h 10.834l 0.38693, -0.153115h 6.19087l 0.38693, -0.153115h 1.93465" fill="none" stroke="#00ff00" stroke-width="2"/>
<path d="M133.213,110.823l 0.38693, 66.2989l 0.38693, 41.4942l 0.38693, 29.8575l 0.38693, 23.1204l 0.38693, 14.3928l 0.38693, 11.4836l 0.38693, 8.72757l 0.38693, 4.28723l 0.38693, 2.90919l 0.38693, 2.44984l 0.38693, 1.83738l 0.38693, 1.22492l
 0.38693, 2.29673l 0.38693, 0.765576l 0.38693, 0.459346l 0.38693, 0.153115l 0.38693, 0.153115l 0.38693, 0.612461h 1.16079l 0.38693, 0.153115h 0.38693l 0.38693, 0.153115h 1.93465l 0.38693, 0.153115h 374.935" fill="none" stroke="#0000ff"
 fill-opacity="0.20" stroke-opacity="0.20"/>
<path d="M133.213,230.1l 0.38693, -65.2271l 0.38693, -41.3411l 0.38693, -29.7043l 0.38693, -22.5079l 0.38693, -13.9335l 0.38693, -11.4836l 0.38693, 43.7909l 0.38693, 59.2556l 0.38693, 45.169l 0.38693, 35.829l 0.38693, 29.8575l 0.38693, 19.5987l
 0.38693, 10.2587l 0.38693, 10.1056l 0.38693, 7.50264l 0.38693, 4.28723l 0.38693, 3.36853l 0.38693, 1.83738l 0.38693, 1.07181l 0.38693, 2.29673l 0.38693, 1.37804l 0.38693, 0.765576l 0.38693, 0.30623l 0.38693, 0.30623l 0.38693, 0.30623l 0.38693,
 0.30623l 0.38693, 0.153115h 1.16079l 0.38693, 0.153115h 2.32158l 0.38693, 0.153115h 371.839" fill="none" stroke="#ff0000" fill-opacity="0.20" stroke-opacity="0.20"/>
<path d="M133.213,323.96h 2.70851l 0.38693, -0.30623l 0.38693, -0.30623l 0.38693, -0.30623l 0.38693, -1.07181l 0.38693, -0.918691l 0.38693, -1.07181l 0.38693, -1.37804l 0.38693, -2.14361l 0.38693, -1.83738l 0.38693, -1.9905l 0.38693, -3.0623l
 0.38693, -0.459346l 0.38693, -1.68427l 0.38693, -0.765576l 0.38693, -1.83738l 0.38693, -1.22492l 0.38693, -1.37804l 0.38693, -1.9905l 0.38693, -2.14361l 0.38693, -1.53115l 0.38693, -1.53115l 0.38693, -0.612461l 0.38693, -2.14361l 0.38693, -1.22492l
 0.38693, -1.37804l 0.38693, -1.83738l 0.38693, -1.83738l 0.38693, -0.918691l 0.38693, -1.83738l 0.38693, -2.29673l 0.38693, -1.07181l 0.38693, -2.29673l 0.38693, -0.765576l 0.38693, -1.83738l 0.38693, -1.9905l 0.38693, -1.22492l 0.38693, -1.53115l
 0.38693, -0.918691l 0.38693, -1.37804l 0.38693, -0.612461l 0.38693, -1.22492l 0.38693, -0.612461l 0.38693, -0.918691l 0.38693, -0.918691l 0.38693, -0.612461l 0.38693, -1.07181l 0.38693, -1.37804l 0.38693, -0.765576l 0.38693, -0.918691l 0.38693,
 -0.918691l 0.38693, -1.37804l 0.38693, -1.9905l 0.38693, -1.37804l 0.38693, -1.37804l 0.38693, -1.37804l 0.38693, -1.83738l 0.38693, -0.765576l 0.38693, -1.22492l 0.38693, -1.37804l 0.38693, -0.612461l 0.38693, -1.37804l 0.38693, -1.07181l 0.38693,
 -1.22492l 0.38693, -0.918691l 0.38693, -0.765576l 0.38693, -1.68427l 0.38693, -0.765576l 0.38693, -0.765576l 0.38693, -0.612461l 0.38693, -0.459346l 0.38693, -0.30623l 0.38693, -1.37804l 0.38693, -0.918691l 0.38693, -0.30623l 0.38693, -0.765576l
 0.38693, -0.765576l 0.38693, -1.07181l 0.38693, -1.22492l 0.38693, -1.07181l 0.38693, -0.765576l 0.38693, -1.07181l 0.38693, -1.07181l 0.38693, -1.37804l 0.38693, -1.07181l 0.38693, -0.459346l 0.38693, -1.37804l 0.38693, -1.07181l 0.38693,
 -0.765576l 0.38693, -0.918691l 0.38693, -1.07181l 0.38693, -0.765576l 0.38693, -0.918691l 0.38693, -0.918691l 0.38693, -0.765576l 0.38693, -1.22492l 0.38693, -0.918691l 0.38693, -1.37804l 0.38693, -1.07181l 0.38693, -1.37804l 0.38693, -1.07181l
 0.38693, -0.918691l 0.38693, -0.459346l 0.38693, -0.30623l 0.38693, -1.22492l 0.38693, -0.459346l 0.38693, -0.612461l 0.38693, -0.612461l 0.38693, -0.918691l 0.38693, -0.459346l 0.38693, -0.765576l 0.38693, -0.765576l 0.38693, -0.459346l 0.38693,
 -0.765576l 0.38693, -1.37804l 0.38693, -0.459346l 0.38693, -1.53115l 0.38693, -0.765576l 0.38693, -1.22492l 0.38693, -0.612461l 0.38693, -1.53115l 0.38693, -0.459346l 0.38693, -0.612461l 0.38693, -1.68427l 0.38693, -0.765576l 0.38693, -1.07181l
 0.38693, -0.765576l 0.38693, -1.22492l 0.38693, -0.918691l 0.38693, -0.918691l 0.38693, -0.918691l 0.38693, -1.37804l 0.38693, -0.30623l 0.38693, -1.07181l 0.38693, -0.612461l 0.38693, -0.612461l 0.38693, -1.22492l 0.38693, -1.07181l 0.38693,
 -0.765576l 0.38693, -0.612461l 0.38693, -0.153115l 0.38693, -0.459346l 0.38693, -0.765576l 0.38693, -0.612461l 0.38693, -0.612461l 0.38693, -0.459346l 0.38693, -0.612461l 0.38693, -0.765576l 0.38693, -0.765576l 0.38693, -0.153115l 0.38693, -1.37804l
 0.38693, -0.612461l 0.38693, -0.765576l 0.38693, -0.612461l 0.38693, -0.612461l 0.38693, -0.612461l 0.38693, -0.612461l 0.38693, -0.918691l 0.38693, -0.30623l 0.38693, -1.22492l 0.38693, -0.153115l 0.38693, -0.765576l 0.38693, -0.765576l 0.38693,
 -0.153115l 0.38693, -0.612461l 0.38693, -0.918691l 0.38693, -1.37804l 0.38693, -0.765576l 0.38693, -0.30623l 0.38693, -1.07181l 0.38693, -0.918691l 0.38693, -0.153115l 0.38693, -0.153115l 0.38693, -0.765576l 0.38693, -0.765576l 0.38693, -0.765576l
 0.38693, -0.459346l 0.38693, -0.459346l 0.38693, -0.459346l 0.38693, -0.459346l 0.38693, -1.53115l 0.38693, -0.765576l 0.38693, -0.765576l 0.38693, -0.459346l 0.38693, -0.30623l 0.38693, -0.30623l 0.38693, -0.459346l 0.38693, -0.612461l 0.38693,
 -0.459346l 0.38693, -0.765576l 0.38693, -0.153115l 0.38693, -0.30623l 0.38693, -0.30623l 0.38693, -0.459346l 0.38693, -0.918691l 0.38693, -0.612461l 0.38693, -0.153115l 0.38693, -1.07181l 0.38693, -1.07181l 0.38693, -0.612461l 0.38693, -0.153115l
 0.38693, -0.765576l 0.38693, -0.765576l 0.38693, -0.612461l 0.38693, -0.612461l 0.38693, -0.612461l 0.38693, -0.459346l 0.38693, -0.459346l 0.38693, -0.459346l 0.38693, -0.612461l 0.38693, -0.918691l 0.38693, -0.459346l 0.38693, -0.30623l 0.38693,
 -0.765576l 0.38693, -0.459346l 0.38693, -1.22492l 0.38693, -0.153115l 0.38693, -0.153115l 0.38693, -0.30623l 0.38693, -0.459346l 0.38693, -0.30623l 0.38693, -0.153115l 0.38693, -0.459346l 0.38693, -0.765576l 0.38693, -0.30623l 0.38693, -0.459346l
 0.38693, -0.153115l 0.38693, -0.30623h 0.38693l 0.38693, -0.30623l 0.38693, -0.153115l 0.38693, -0.30623l 0.38693, -0.459346l 0.38693, -0.30623l 0.38693, -0.153115l 0.38693, -0.459346l 0.38693, -0.459346l 0.38693, -0.30623h 0.38693l 0.38693,
 -0.765576l 0.38693, -0.612461l 0.38693, -0.153115l 0.38693, -0.459346l 0.38693, -0.30623l 0.38693, -0.765576l 0.38693, -0.30623l 0.38693, -0.30623h 0.38693l 0.38693, -0.153115l 0.38693, -0.459346l 0.38693, -0.459346h 0.38693l 0.38693, -0.459346l
 0.38693, -0.30623l 0.38693, -0.612461l 0.38693, -0.153115l 0.38693, -0.30623l 0.38693, -0.153115l 0.38693, -0.153115h 0.38693l 0.38693, -0.153115l 0.38693, -0.765576l 0.38693, -0.30623l 0.38693, -0.459346l 0.38693, -0.612461h 0.38693l 0.38693,
 -0.30623l 0.38693, -0.459346l 0.38693, -0.459346l 0.38693, -0.30623l 0.38693, -0.153115l 0.38693, -0.459346l 0.38693, -0.30623l 0.38693, -0.459346l 0.38693, -0.30623l 0.38693, -0.30623l 0.38693, -0.612461l 0.38693, -0.459346l 0.38693, -0.612461l
 0.38693, -0.30623l 0.38693, -0.459346l 0.38693, -0.153115l 0.38693, -0.153115h 0.38693l 0.38693, -0.30623l 0.38693, -0.30623l 0.38693, -0.459346l 0.38693, -0.30623l 0.38693, -1.07181h 0.38693l 0.38693, -0.459346l 0.38693, -0.30623l 0.38693,
 -0.459346l 0.38693, -0.153115l 0.38693, -0.30623h 1.16079l 0.38693, -0.153115l 0.38693, -0.459346l 0.38693, -0.30623h 0.38693l 0.38693, -0.153115l 0.38693, -0.30623l 0.38693, -0.153115l 0.38693, -0.153115l 0.38693, -0.153115l 0.38693, -0.30623l
 0.38693, -0.459346h 0.38693l 0.38693, -0.30623l 0.38693, -0.30623h 0.38693l 0.38693, -0.30623l 0.38693, -0.612461l 0.38693, -0.153115l 0.38693, -0.153115h 0.38693l 0.38693, -0.153115l 0.38693, -0.30623h 0.773859l 0.38693, -0.153115l 0.38693,
 -0.459346l 0.38693, -0.30623l 0.38693, -0.30623l 0.38693, -0.153115l 0.38693, -0.30623l 0.38693, -0.459346l 0.38693, -0.153115l 0.38693, -0.30623l 0.38693, -0.459346l 0.38693, -0.765576l 0.38693, -0.459346l 0.38693, -0.153115h 0.38693l 0.38693,
 -0.153115l 0.38693, -0.153115l 0.38693, -0.153115h 0.38693l 0.38693, -0.153115l 0.38693, -0.153115l 0.38693, -0.153115l 0.38693, -0.153115l 0.38693, -0.459346l 0.38693, -0.153115l 0.38693, -0.30623l 0.38693, -0.153115l 0.38693, -0.30623l 0.38693,
 -0.30623l 0.38693, -0.612461l 0.38693, -0.153115l 0.38693, -0.153115l 0.38693, -0.30623l 0.38693, -0.153115h 1.54772l 0.38693, -0.153115h 0.38693l 0.38693, -0.153115l 0.38693, -0.459346l 0.38693, -0.30623l 0.38693, -0.153115l 0.38693, -0.153115l
 0.38693, -0.459346h 0.773859l 0.38693, -0.30623l 0.38693, -0.153115h 0.38693l 0.38693, -0.459346h 0.38693l 0.38693, -1.07181h 1.16079l 0.38693, -0.30623l 0.38693, -0.765576l 0.38693, -0.153115l 0.38693, -0.30623l 0.38693, -0.30623l 0.38693,
 -0.30623l 0.38693, -0.153115l 0.38693, -0.153115l 0.38693, -0.153115h 0.38693l 0.38693, -0.153115l 0.38693, -0.30623l 0.38693, -0.153115l 0.38693, -0.153115h 0.773859l 0.38693, -0.30623h 1.16079l 0.38693, -0.153115l 0.38693, -0.30623l 0.38693,
 -0.459346h 0.38693l 0.38693, -0.153115h 1.54772l 0.38693, -0.153115l 0.38693, -0.153115l 0.38693, -0.153115l 0.38693, -0.153115h 0.38693l 0.38693, -0.30623h 0.38693l 0.38693, -0.153115h 1.16079l 0.38693, -0.30623h 1.54772l 0.38693, -0.153115h
 0.773859l 0.38693, -0.30623l 0.38693, -0.153115h 0.38693l 0.38693, -0.153115h 0.38693l 0.38693, -0.30623h 0.38693l 0.38693, -0.30623l 0.38693, -0.153115l 0.38693, -0.153115l 0.38693, -0.30623l 0.38693, -0.153115l 0.38693, -0.153115l 0.38693,
 -0.153115l 0.38693, -0.30623h 0.773859l 0.38693, -0.153115l 0.38693, -0.30623h 0.38693l 0.38693, -0.153115l 0.38693, -0.30623h 1.16079l 0.38693, -0.153115h 3.8693l 0.38693, -0.153115l 0.38693, -0.153115h 0.38693l 0.38693, -0.153115h 1.16079l
 0.38693, -0.153115l 0.38693, -0.30623h 0.773859l 0.38693, -0.30623h 1.16079l 0.38693, -0.153115h 0.38693l 0.38693, -0.30623l 0.38693, -0.153115l 0.38693, -0.153115h 0.38693l 0.38693, -0.153115h 0.38693l 0.38693, -0.153115l 0.38693, -0.153115h
 0.38693l 0.38693, -0.153115h 0.773859l 0.38693, -0.153115h 0.38693l 0.38693, -0.153115l 0.38693, -0.153115l 0.38693, -0.153115h 0.38693l 0.38693, -0.153115h 0.773859l 0.38693, -0.153115h 0.38693l 0.38693, -0.153115h 0.773859l 0.38693, -0.30623h
 0.773859l 0.38693, -0.153115l 0.38693, -0.153115h 0.38693l 0.38693, -0.153115h 0.38693l 0.38693, -0.153115h 0.38693l 0.38693, -0.30623l 0.38693, -0.153115h 1.16079l 0.38693, -0.153115h 0.773859l 0.38693, -0.153115h 0.38693l 0.38693, -0.30623h
 1.54772l 0.38693, -0.153115h 1.93465l 0.38693, -0.153115h 0.38693l 0.38693, -0.153115h 3.09544l 0.38693, -0.153115l 0.38693, -0.153115h 1.16079l 0.38693, -0.153115h 1.54772l 0.38693, -0.30623h 1.16079l 0.38693, -0.153115h 0.38693l 0.38693,
 -0.153115h 0.773859l 0.38693, -0.153115h 0.38693l 0.38693, -0.153115l 0.38693, -0.153115h 0.38693l 0.38693, -0.153115h 0.38693l 0.38693, -0.153115h 1.16079l 0.38693, -0.153115h 1.16079l 0.38693, -0.153115h 0.38693l 0.38693, -0.153115l 0.38693,
 -0.153115h 1.16079l 0.38693, -0.153115l 0.38693, -0.153115h 2.70851l 0.38693, -0.153115l 0.38693, -0.153115l 0.38693, -0.153115l 0.38693, -0.153115l 0.38693, -0.153115h 3.8693l 0.38693, -0.153115h 0.773859l 0.38693, -0.153115h 0.38693l 0.38693,
 -0.30623h 0.38693l 0.38693, -0.153115h 3.48237l 0.38693, -0.153115h 0.38693l 0.38693, -0.153115h 6.96473l 0.38693, -0.153115l 0.38693, -0.30623h 9.28631l 0.38693, -0.153115h 0.38693l 0.38693, -0.153115h 5.03008l 0.38693, -0.30623h 1.16079l 0.38693,
 -0.153115h 3.8693l 0.38693, -0.153115h 1.93465l 0.38693, -0.153115h 1.54772l 0.38693, -0.30623h 1.93465l 0.38693, -0.153115h 3.09544l 0.38693, -0.153115h 1.54772l 0.38693, -0.153115h 0.773859l 0.38693, -0.153115h 1.93465l 0.38693, -0.153115h
 10.4471l 0.38693, -0.153115h 21.2811l 0.38693, -0.153115h 0.773859l 0.38693, -0.153115h 1.93465l 0.38693, -0.153115h 0.773859l 0.38693, -0.153115h 9.28631l 0.38693, -0.153115h 13.1556l 0.38693, -0.153115h 1.93465l 0.38693, -0.153115h 11.9948l
 0.38693, -0.153115h 10.834l 0.38693, -0.153115h 6.19087l 0.38693, -0.153115h 1.93465" fill="none" stroke="#00ff00" fill-opacity="0.20" stroke-opacity="0.20"/>
<rect x="311.345" y="112.397" width="214.209" height="138.703" fill="white"/>
<path d="M311.345,251.1h 214.209" fill="none" stroke="black"/>
<path d="M525.554,251.1v -138.703" fill="none" stroke="black"/>
<path d="M525.554,112.397h -214.209" fill="none" stroke="black"/>
<path d="M311.345,112.397v 138.703" fill="none" stroke="black"/>
<text xml:space="preserve" x="363.335" y="123.105" fill="black" font-size="22.7908" font-family="Helvetica"> </text>
<path d="M319.378,125.497h 37.4866v -10.788h -37.4866z" fill="none" stroke="white"/>
<path d="M319.378,120.103h 37.4866" fill="none" stroke="#0000ff" stroke-width="2" stroke-dasharray=" 3, 3"/>
<g stroke="#0000ff" stroke-width="1" fill="none">
<line x1="337.121" y1="120.103" x2="338.121" y2="120.103"/>
</g>
<text xml:space="preserve" x="363.335" y="137.683" fill="black" font-size="22.7908" font-family="Helvetica"> </text>
<path d="M319.378,140.909h 37.4866v -10.788h -37.4866z" fill="none" stroke="white"/>
<path d="M319.378,135.515h 37.4866" fill="none" stroke="#ff0000" stroke-width="2" stroke-dasharray=" 3, 3"/>
<g stroke="#ff0000" stroke-width="1" fill="none">
<line x1="337.121" y1="135.515" x2="338.121" y2="135.515"/>
</g>
<text xml:space="preserve" x="363.335" y="153.881" fill="black" font-size="22.7908" font-family="Helvetica">SIR analytical</text>
<path d="M319.378,156.32h 37.4866v -10.788h -37.4866z" fill="none" stroke="white"/>
<path d="M319.378,150.926h 37.4866" fill="none" stroke="#00ff00" stroke-width="2" stroke-dasharray=" 3, 3"/>
<g stroke="#00ff00" stroke-width="1" fill="none">
<line x1="337.121" y1="150.926" x2="338.121" y2="150.926"/>
</g>
<text xml:space="preserve" x="363.335" y="168.459" fill="black" font-size="22.7908" font-family="Helvetica"> </text>
<path d="M319.378,171.731h 37.4866v -10.788h -37.4866z" fill="white"/>
<path d="M319.378,166.337h 37.4866" fill="none" stroke="#0000ff" stroke-width="2"/>
<g stroke="#0000ff" stroke-width="1" fill="none">
<line x1="337.121" y1="166.337" x2="338.121" y2="166.337"/>
</g>
<text xml:space="preserve" x="363.335" y="184.657" fill="black" font-size="22.7908" font-family="Helvetica"> </text>
<path d="M319.378,187.143h 37.4866v -10.788h -37.4866z" fill="white"/>
<path d="M319.378,181.749h 37.4866" fill="none" stroke="#ff0000" stroke-width="2"/>
<g stroke="#ff0000" stroke-width="1" fill="none">
<line x1="337.121" y1="181.749" x2="338.121" y2="181.749"/>
</g>
<text xml:space="preserve" x="363.335" y="199.235" fill="black" font-size="22.7908" font-family="Helvetica">SIR sim mean</text>
<path d="M319.378,202.554h 37.4866v -10.788h -37.4866z" fill="white"/>
<path d="M319.378,197.16h 37.4866" fill="none" stroke="#00ff00" stroke-width="2"/>
<g stroke="#00ff00" stroke-width="1" fill="none">
<line x1="337.121" y1="197.16" x2="338.121" y2="197.16"/>
</g>
<text xml:space="preserve" x="363.335" y="215.433" fill="black" font-size="22.7908" font-family="Helvetica"> </text>
<path d="M319.378,217.966h 37.4866v -10.788h -37.4866z" fill="white"/>
<path d="M319.378,212.572h 37.4866" fill="none" stroke="#0000ff" fill-opacity="0.20" stroke-opacity="0.20"/>
<g stroke="#0000ff" fill-opacity="0.20" stroke-opacity="0.20" stroke-width="1" fill="none">
<line x1="337.121" y1="212.572" x2="338.121" y2="212.572"/>
</g>
<text xml:space="preserve" x="363.335" y="230.011" fill="black" font-size="22.7908" font-family="Helvetica"> </text>
<path d="M319.378,233.377h 37.4866v -10.788h -37.4866z" fill="white"/>
<path d="M319.378,227.983h 37.4866" fill="none" stroke="#ff0000" fill-opacity="0.20" stroke-opacity="0.20"/>
<g stroke="#ff0000" fill-opacity="0.20" stroke-opacity="0.20" stroke-width="1" fill="none">
<line x1="337.121" y1="227.983" x2="338.121" y2="227.983"/>
</g>
<text xml:space="preserve" x="363.335" y="246.209" fill="black" font-size="22.7908" font-family="Helvetica">SIR single sim</text>
<path d="M319.378,248.789h 37.4866v -10.788h -37.4866z" fill="white"/>
<path d="M319.378,243.395h 37.4866" fill="none" stroke="#00ff00" fill-opacity="0.20" stroke-opacity="0.20"/>
<g stroke="#00ff00" fill-opacity="0.20" stroke-opacity="0.20" stroke-width="1" fill="none">
<line x1="337.121" y1="243.395" x2="338.121" y2="243.395"/>
</g></svg>
